<?xml version="1.0" encoding="UTF-8" standalone="no"?>
<!-- Created with Inkscape (http://www.inkscape.org/) -->
<svg
   xmlns:svg="http://www.w3.org/2000/svg"
   xmlns="http://www.w3.org/2000/svg"
   version="1.0"
   width="779.52753"
   height="389.05511"
   id="svg2">
  <defs
     id="defs4" />
  <g
     transform="translate(-1071.2453,854.67189)"
     id="layer1">
    <g
       transform="translate(35.433063,35.498977)"
       id="g7279">
      <path
         d="M 1576.9302,-735.8298 L 1576.9302,-656.7676 C 1576.9302,-653.96602 1579.2008,-651.69535 1582.0024,-651.69535 L 1661.065,-651.69535 C 1663.8665,-651.69535 1666.133,-653.96602 1666.133,-656.7676 L 1666.133,-735.8298 C 1666.133,-738.63563 1663.8665,-740.90205 1661.065,-740.90205 L 1582.0024,-740.90205 C 1579.2008,-740.90205 1576.9302,-738.63563 1576.9302,-735.8298 z M 1071.2453,-610.39517 C 1071.2453,-610.39517 1071.2453,-716.12835 1071.2453,-778.62078 C 1071.2453,-815.48634 1097.011,-854.67189 1152.667,-854.67189 C 1203.6754,-854.67189 1223.1352,-813.06472 1228.7262,-813.06472 C 1234.317,-813.06472 1254.0385,-854.67189 1304.8182,-854.67189 C 1346.8703,-854.67189 1366.6408,-827.38301 1366.6408,-827.38301 C 1366.6408,-827.38301 1375.4703,-854.67189 1403.2574,-854.67189 L 1447.8988,-854.67189 C 1475.29,-854.67189 1483.7355,-827.828 1483.7355,-827.828 C 1483.7355,-827.828 1502.5298,-854.67189 1540.78,-854.67189 C 1600.0135,-854.67189 1642.1146,-854.67189 1701.6137,-854.67189 C 1742.1956,-854.67189 1779.9067,-818.97827 1779.9067,-778.396 L 1779.9067,-613.21309 C 1779.9067,-574.1543 1740.2314,-537.62755 1701.1684,-537.62755 C 1701.3932,-537.47236 1540.5595,-537.62755 1540.5595,-537.62755 C 1499.9733,-537.62755 1483.9642,-565.6597 1483.9642,-565.6597 C 1483.9642,-565.6597 1473.0846,-537.62755 1447.7234,-537.62755 L 1403.2084,-537.62755 C 1372.7707,-537.62755 1367.6373,-565.88024 1367.6373,-565.88024 C 1367.6373,-565.88024 1347.8221,-536.61473 1307.244,-536.61473 C 1292.023,-536.61473 1278.8319,-549.7771 1278.8319,-549.7771 C 1278.8319,-549.7771 1269.3778,-537.62755 1249.0806,-537.62755 L 1208.1471,-537.62755 C 1192.9264,-537.62755 1182.4225,-547.98442 1182.4225,-547.98442 C 1182.4225,-547.98442 1173.4091,-536.61473 1153.1162,-536.61473 C 1102.3855,-536.61473 1071.2453,-579.96166 1071.2453,-610.39517"
         id="path6756"
         style="fill:#000000;fill-opacity:1;fill-rule:nonzero;stroke:none" />
      <path
         d="M 1092.551,-610.39484 C 1092.551,-580.56575 1127.6157,-557.9244 1147.3085,-557.9244 C 1167.8834,-557.9244 1168.8635,-575.45266 1168.8635,-575.5791 C 1168.8635,-609.94953 1168.8635,-703.00616 1168.8635,-741.04397 C 1168.8635,-746.92092 1173.6457,-751.69488 1179.5187,-751.69488 C 1185.3953,-751.69488 1190.1735,-746.92092 1190.1735,-741.04397 C 1190.1735,-694.50765 1190.1735,-603.46424 1190.1735,-573.03889 C 1190.1735,-564.13198 1199.2317,-558.93297 1208.1468,-558.93297 C 1222.0162,-558.93297 1232.7527,-558.93297 1246.6217,-558.93297 C 1256.3252,-558.93297 1267.2783,-563.111 1267.2783,-572.81444 C 1267.2783,-617.55383 1267.2783,-696.29642 1267.2783,-741.04397 C 1267.2783,-746.92092 1272.0565,-751.69488 1277.9334,-751.69488 C 1283.8101,-751.69488 1288.5883,-746.92092 1288.5883,-741.04397 C 1288.5883,-702.55693 1288.5883,-610.39484 1288.5883,-575.5791 C 1288.5883,-575.48925 1289.5642,-557.9244 1310.1433,-557.9244 C 1329.8321,-557.9244 1364.9253,-580.81471 1364.9253,-610.39484 C 1364.9253,-668.5583 1364.9253,-713.00789 1364.9253,-778.62046 C 1364.9253,-806.35432 1336.9911,-833.36549 1304.7813,-833.36549 C 1259.1633,-833.36549 1249.0188,-786.69849 1228.7259,-786.69849 C 1208.433,-786.69849 1198.2881,-833.36549 1152.6666,-833.36549 C 1118.2188,-833.36549 1092.551,-802.77679 1092.551,-778.62046 C 1092.551,-713.01606 1092.551,-669.45252 1092.551,-610.39484"
         id="path6760"
         style="fill:#ffffff;fill-opacity:1;fill-rule:nonzero;stroke:none" />
      <path
         d="M 1405.0789,-733.43184 C 1395.2732,-733.43184 1387.3262,-725.48057 1387.3262,-715.67912 L 1387.3262,-576.68634 C 1387.3262,-566.88064 1395.2732,-558.93329 1405.0789,-558.93329 L 1446.5227,-558.93329 C 1456.3281,-558.93329 1464.2797,-566.88064 1464.2797,-576.68634 L 1464.2797,-715.67912 C 1464.2797,-725.48057 1456.3281,-733.43184 1446.5227,-733.43184 L 1405.0789,-733.43184"
         id="path6764"
         style="fill:#ffffff;fill-opacity:1;fill-rule:nonzero;stroke:none" />
      <path
         d="M 1405.0789,-832.74898 C 1395.2732,-832.74898 1387.3262,-824.80164 1387.3262,-814.99626 L 1387.3262,-772.43737 C 1387.3262,-762.63167 1395.2732,-754.68041 1405.0789,-754.68041 L 1446.5227,-754.68041 C 1456.3281,-754.68041 1464.2797,-762.63167 1464.2797,-772.43737 L 1464.2797,-814.99626 C 1464.2797,-824.80164 1456.3281,-832.74898 1446.5227,-832.74898 L 1405.0789,-832.74898"
         id="path6768"
         style="fill:#ffffff;fill-opacity:1;fill-rule:nonzero;stroke:none" />
      <path
         d="M 469.75,21.40625 C 444.69481,21.471589 413.679,49.21893 413.875,76.0625 C 414.2713,132.43719 413.875,189.69565 413.875,244.28125 C 413.875,266.64915 440.2188,295.34375 469.75,295.34375 C 523.43741,295.34375 574.4612,295.34375 629.9375,295.34375 C 655.8868,295.34375 687.34375,267.54337 687.34375,244.28125 C 687.34377,187.90656 687.34375,133.33174 687.34375,76.0625 C 687.34377,47.434091 657.6756,21.47159 629.9375,21.40625 C 576.54175,21.278993 523.14574,21.281775 469.75,21.40625 z M 509.30027,115.1481 C 509.4708,115.13082 509.62517,115.1481 509.80027,115.1481 L 589.60394,113.98981 C 592.40557,113.98981 594.66644,116.24648 594.66644,119.05231 L 592.34986,197.69769 C 592.34986,200.49926 590.08896,202.76019 587.28736,202.76019 L 511.5377,204.49762 C 508.73612,204.49761 506.4752,202.2367 506.4752,199.43512 L 504.73777,120.2106 C 504.73776,117.58014 506.74237,115.40737 509.30027,115.1481 z"
         transform="translate(1071.2453,-854.67189)"
         id="path6772"
         style="fill:#ffffff;fill-opacity:1;fill-rule:nonzero;stroke:none" />
      <path
         d="M 1582.9302,-729.8298 L 1582.9302,-662.7676 C 1582.9302,-659.96602 1585.2008,-657.69535 1588.0024,-657.69535 L 1655.065,-657.69535 C 1657.8665,-657.69535 1660.133,-659.96602 1660.133,-662.7676 L 1660.133,-729.8298 C 1660.133,-732.63563 1657.8665,-734.90205 1655.065,-734.90205 L 1588.0024,-734.90205 C 1585.2008,-734.90205 1582.9302,-732.63563 1582.9302,-729.8298 z M 1590.755,-756.24897 L 1652.3124,-756.24897 C 1669.1258,-756.24897 1681.4838,-743.88672 1681.4838,-727.08147 L 1681.4838,-665.51593 C 1681.4838,-648.70644 1669.1258,-636.34452 1652.3124,-636.34452 L 1590.755,-636.34452 C 1573.9416,-636.34452 1561.5836,-648.70644 1561.5836,-665.51593 L 1561.5836,-727.08147 C 1561.5836,-743.88672 1573.9416,-756.24897 1590.755,-756.24897"
         id="path6776"
         style="fill:#000000;fill-opacity:1;fill-rule:nonzero;stroke:none" />
    </g>
  </g>
</svg>
