<?xml version="1.0" encoding="UTF-8"?>
<svg id="Layer_1" data-name="Layer 1" xmlns="http://www.w3.org/2000/svg" viewBox="0 0 556.52 449.77">
  <defs>
    <style>
      .cls-1 {
        fill: none;
        stroke: #5d2b0e;
        stroke-linecap: round;
        stroke-width: 3.39px;
      }

      .cls-2, .cls-3, .cls-4, .cls-5, .cls-6, .cls-7, .cls-8, .cls-9 {
        stroke-width: 0px;
      }

      .cls-2, .cls-3, .cls-4, .cls-9 {
        fill-rule: evenodd;
      }

      .cls-2, .cls-5 {
        fill: #5d2b0e;
      }

      .cls-3, .cls-7 {
        fill: #fff;
      }

      .cls-4 {
        fill: #eedfc9;
      }

      .cls-6 {
        fill: #d2775d;
      }

      .cls-8 {
        fill: #fb5;
      }
    </style>
  </defs>
  <path class="cls-9" d="m53.31,282.7c-3.94-1.17-8.12.91-9.56,4.76L2.24,398.57c-1.51,4.05.55,8.55,4.6,10.06.88.33,1.82.5,2.76.49h102.48c3.19,0,6.07-1.94,7.26-4.9l33.39-83.1c1.62-4.01-.33-8.57-4.34-10.19-.22-.09-.44-.16-.66-.23l-94.42-28Zm-11.19,4.16c1.76-4.71,6.87-7.26,11.69-5.83l94.38,28c5.07,1.51,7.95,6.84,6.44,11.9-.08.28-.18.56-.29.84l-33.38,83.09c-1.46,3.63-4.97,6-8.88,6H9.6C4.32,410.88.02,406.61,0,401.32c0-1.15.2-2.29.6-3.37l41.52-111.09Z"/>
  <path class="cls-5" d="m48.52,348.76l-15-166.12c-.43-4.79,3.09-9.02,7.88-9.45.17-.02.34-.03.51-.03l203.67-6.41c4.52-.14,8.4,3.21,8.92,7.7l18.89,165.32c.55,4.77-2.87,9.08-7.64,9.63-.23.03-.47.04-.7.05l-207.61,7.22c-4.6.14-8.51-3.33-8.92-7.91Z"/>
  <path class="cls-3" d="m233.41,179.78c4.96-.15,9.21,3.51,9.79,8.43l16.26,136.13c.62,5.25-3.13,10.02-8.39,10.64-.27.03-.53.05-.8.06l-180,6c-5.06.17-9.38-3.63-9.85-8.67l-12.9-136.8c-.49-5.26,3.37-9.92,8.62-10.41.2-.02.4-.03.61-.04l176.66-5.34Zm8.06,8.64c-.48-4.03-3.95-7.02-8-6.9l-176.67,5.33c-4.31.12-7.71,3.72-7.58,8.03,0,.17.02.35.03.52l12.87,136.8c.38,4.12,3.91,7.23,8.05,7.09l180.05-6c4.32-.15,7.71-3.77,7.56-8.09,0-.22-.02-.44-.05-.66l-16.26-136.12Z"/>
  <path class="cls-5" d="m365.81,9.12c-27,21.74-13.91,57.4-13.91,57.4l44.34,70.41,41.76,59.19s76.75-79.33,53-124.37c-6.56-12.63-14.76-18.76-22.48-21.56-10.78-3.93-23.58-13.07-27.91-23.71-9.83-24.12-51.8-35.94-74.8-17.36Z"/>
  <path class="cls-6" d="m334.86,89.45c15.43-14.59,22.35-28.57,37.6-53,0,0,18.22-5.9,24.88,21,6.66,26.9,35.63,22.62,35.63,22.62,0,0,16.71-2.22,23.86,13.58,12.1,26.74-17.94,41.2-17.94,41.2l18.35,36.52,1.58,23.18-70.15,13.73,1.35-46s-29.19,6.16-47.08-17.89c-15.65-21-1.11-49.84-1.11-49.84l-6.59-2.98c-.66-.29-.95-1.06-.66-1.72.07-.15.16-.29.28-.4Z"/>
  <path class="cls-1" d="m424.7,109.61l17.87-7.27"/>
  <path class="cls-5" d="m413.94,147.78l-24,14.46-1.27,30.4,25.27-44.86Z"/>
  <path class="cls-2" d="m366.97,104c.95.09,1.65.94,1.56,1.9l-1.73-.17,1.73.18h0s0,.05,0,.08v.25c-.04.27-.1.54-.18.81-.22.87-.56,1.7-1,2.48-1.44,2.47-4,4.08-6.85,4.31-2.64.42-5.33-.28-7.43-1.94-.61-.52-1.14-1.12-1.58-1.79-.14-.2-.26-.42-.37-.64l-.1-.21s0-.04,0-.06h0l1.62-.64-1.62.64c-.36-.89.07-1.91.96-2.26.89-.36,1.91.07,2.27.96h0v.06c.05.11.11.21.18.31.25.38.55.71.9,1,1.36,1.06,3.11,1.48,4.8,1.16,1.77-.11,3.36-1.09,4.25-2.62.29-.51.52-1.05.67-1.62.06-.22.1-.39.12-.51,0-.04,0-.08,0-.12h0c.09-.91.88-1.6,1.8-1.56Z"/>
  <path class="cls-5" d="m374.97,79.12c-1.57,3.53-4.65,5.6-6.89,4.6s-2.76-4.66-1.19-8.2,4.65-5.6,6.89-4.6,2.76,4.7,1.19,8.2Z"/>
  <path class="cls-8" d="m314.36,259.12l32.06,186.13h196.54c7.49,0,13.56-6.07,13.56-13.56,0-.72-.06-1.45-.17-2.16l-1.84-11.41-32.45-189.88c-4.94-28.88-32.14-48.44-61.09-43.93l-74.56,9.49-23.52,2.14c-29.82,2.71-51.8,29.08-49.09,58.9.13,1.43.32,2.86.56,4.28Z"/>
  <path class="cls-3" d="m526.69,262.85c.1.95-.58,1.8-1.53,1.91,0,0,0,0,0,0l-206.12,21.74c-.95.13-1.83-.54-1.95-1.5s.54-1.83,1.5-1.95c.03,0,.06,0,.1,0l206.11-21.74c.95-.1,1.8.58,1.91,1.53,0,0,0,.01,0,.02Zm13,68.65c.15.95-.49,1.84-1.44,1.99-.01,0-.03,0-.04,0l-203.47,27.79c-.95.13-1.83-.54-1.96-1.49-.13-.95.54-1.83,1.49-1.96l203.5-27.83c.95-.13,1.83.54,1.96,1.49,0,0,0,0,0,0h-.04Zm9.56,54.74c.16.95-.49,1.84-1.43,2,0,0,0,0,0,0l-204.33,33.05c-.95.15-1.85-.49-2-1.44s.49-1.85,1.44-2h0l204.38-33c.93-.16,1.82.46,1.99,1.39h-.04Z"/>
  <path class="cls-6" d="m97.64,449.66l27.5-1.65,166-2.58c21.97-.33,39.51-18.41,39.18-40.38-.33-21.97-18.41-39.51-40.38-39.18-2.59.04-5.17.33-7.7.87l-175.85,37.51-29.81-13.14-16.41-8.65c-3.56-1.88-7.94-1.07-10.6,1.95l-15.84,18.07-20,12.19c-2.45,1.52-3.21,4.73-1.7,7.18.43.69,1.01,1.27,1.7,1.7l9.57,6,23.29-1.4,12.55,9.7c10.99,8.46,24.66,12.65,38.5,11.8Z"/>
  <path class="cls-2" d="m68.85,388.03c.33.89-.11,1.89-1,2.23l-28.7,10.44c-.9.34-1.9-.12-2.24-1.02-.34-.9.12-1.9,1.02-2.24.01,0,.02,0,.04-.01l28.7-10.44c.89-.3,1.86.16,2.19,1.04Z"/>
  <path class="cls-2" d="m55.76,404.45c.39.87,0,1.9-.88,2.28,0,0,0,0-.01,0l-37.39,16.52c-.81.52-1.89.28-2.4-.53-.52-.81-.28-1.89.53-2.4.14-.09.3-.16.47-.21l37.4-16.52c.87-.4,1.89-.02,2.29.85Z"/>
  <path class="cls-6" d="m277.74,315.83c12.78-22.94,41.74-31.18,64.68-18.39s31.18,41.74,18.39,64.68h0l-29.69,53.3c-12.56,23.05-41.44,31.56-64.49,19-23.05-12.56-31.56-41.44-19-64.49.13-.25.27-.49.41-.73l29.69-53.36Z"/>
  <path class="cls-8" d="m315.98,231.12c12.31-26.41,43.7-37.85,70.11-25.54,26.41,12.31,37.85,43.7,25.54,70.11-.72,1.55-1.52,3.06-2.39,4.53l-58.76,100.66-83.37-46.1,48.87-103.66Z"/>
  <path class="cls-3" d="m315.64,227.31c.52-.81,1.59-1.05,2.41-.54l86.09,54.79c.82.49,1.09,1.56.6,2.39-.49.82-1.56,1.09-2.39.6-.02-.01-.05-.03-.07-.05l-86.1-54.79c-.81-.52-1.05-1.59-.54-2.4Zm-22.6,51.3c.52-.8,1.59-1.04,2.4-.52l82.62,53c.81.52,1.04,1.6.52,2.4s-1.6,1.04-2.4.52l-82.62-53c-.81-.52-1.04-1.6-.52-2.4,0,0,0,0,0,0Z"/>
  <path class="cls-2" d="m398.39,295.41c16.7-28.59,7.06-65.29-21.53-81.99-2.99-1.74-6.12-3.23-9.36-4.43-.89-.37-1.31-1.39-.94-2.28.35-.84,1.28-1.27,2.15-.98,32.83,12.2,49.55,48.7,37.35,81.53-1.27,3.42-2.83,6.71-4.67,9.86l-49.4,84.59c-.43.86-1.48,1.21-2.34.77-.86-.43-1.21-1.48-.77-2.34.03-.07.07-.13.11-.19l49.4-84.55Z"/>
  <path class="cls-3" d="m456.24,43.27l-20,60.85-1.65-.54,20-60.88,1.65.57Z"/>
  <path class="cls-7" d="m468.44,108.23c0,17.77-14.41,32.18-32.18,32.18-17.77,0-32.18-14.41-32.18-32.18,0-17.76,14.4-32.17,32.16-32.18,17.77-.01,32.19,14.39,32.2,32.16v.02Z"/>
  <path class="cls-4" d="m437.13,129.97c11.53-.01,20.86-9.36,20.85-20.89s-9.36-20.86-20.89-20.85c-11.53.01-20.86,9.36-20.85,20.89.02,11.52,9.37,20.86,20.89,20.85Zm0,1.74c12.49,0,22.61-10.12,22.61-22.61s-10.12-22.61-22.61-22.61c-12.49,0-22.61,10.12-22.61,22.61v.02c.01,12.48,10.13,22.59,22.61,22.59h0Z"/>
</svg>