<?xml version="1.0" encoding="UTF-8"?>
<svg id="Lager_1" data-name="Lager 1" xmlns="http://www.w3.org/2000/svg" viewBox="0 0 665.7 525.86">
  <defs>
    <style>
      .cls-1 {
        stroke: #5d2b0e;
        stroke-width: 1.95px;
      }

      .cls-1, .cls-2 {
        fill: none;
        stroke-linecap: round;
      }

      .cls-2 {
        stroke: #2e1407;
        stroke-linejoin: round;
        stroke-width: 1.47px;
      }

      .cls-3, .cls-4, .cls-5, .cls-6, .cls-7, .cls-8, .cls-9, .cls-10, .cls-11, .cls-12, .cls-13, .cls-14, .cls-15, .cls-16, .cls-17, .cls-18, .cls-19 {
        stroke-width: 0px;
      }

      .cls-3, .cls-4, .cls-5, .cls-6, .cls-7, .cls-8, .cls-9, .cls-19 {
        fill-rule: evenodd;
      }

      .cls-3, .cls-11 {
        fill: #5d2b0e;
      }

      .cls-4, .cls-15 {
        fill: #fff;
      }

      .cls-5, .cls-14 {
        fill: #80b483;
      }

      .cls-6, .cls-17 {
        fill: #eedfc9;
      }

      .cls-7, .cls-18 {
        fill: #f2796b;
      }

      .cls-8 {
        fill: #f8f4f1;
      }

      .cls-9, .cls-10 {
        fill: #f99184;
      }

      .cls-12 {
        fill: #d2775d;
      }

      .cls-13 {
        fill: #b9e6f0;
      }

      .cls-16 {
        fill: #fb5;
      }
    </style>
  </defs>
  <path class="cls-17" d="m269,264.69c0-9.22,7.47-16.69,16.69-16.69h363.31c9.22,0,16.69,7.47,16.69,16.69v241.59c0,9.22-7.47,16.69-16.69,16.69h-363.31c-9.22,0-16.69-7.47-16.69-16.69v-241.59Z"/>
  <path class="cls-19" d="m340.33,429.81c-2.27-.67-4.67.52-5.5,2.74l-23.85,63.88c-1.1,2.94,1.08,6.07,4.22,6.07h58.92c1.84,0,3.49-1.12,4.17-2.82l19.19-47.78c.99-2.46-.35-5.24-2.9-5.99l-54.26-16.1Zm-6.43,2.39c1.01-2.71,3.95-4.17,6.72-3.35l54.26,16.1c3.11.92,4.75,4.32,3.54,7.32l-19.19,47.77c-.84,2.08-2.86,3.45-5.1,3.45h-58.92c-3.84,0-6.49-3.83-5.15-7.42l23.85-63.88Z"/>
  <path class="cls-11" d="m337.58,467.79l-8.6-95.51c-.26-2.86,1.95-5.35,4.82-5.45l117.1-3.69c2.6-.08,4.83,1.84,5.12,4.43l10.86,95.05c.33,2.9-1.88,5.46-4.79,5.57l-119.36,4.15c-2.65.09-4.92-1.9-5.15-4.55Z"/>
  <path class="cls-4" d="m443.88,370.64c2.85-.09,5.29,2.02,5.63,4.85l9.35,78.27c.38,3.2-2.06,6.04-5.28,6.15l-103.51,3.44c-2.91.1-5.39-2.09-5.66-4.98l-7.4-78.65c-.3-3.16,2.14-5.92,5.31-6.01l101.57-3.06Zm4.63,4.96c-.28-2.31-2.27-4.04-4.6-3.96l-101.57,3.06c-2.6.08-4.59,2.33-4.34,4.92l7.4,78.65c.22,2.37,2.25,4.15,4.63,4.08l103.51-3.44c2.64-.09,4.63-2.41,4.32-5.03l-9.35-78.27Z"/>
  <path class="cls-11" d="m520,272.5c-15.5,12.5-8,33-8,33l25.5,40.5,24,34s44.13-45.61,30.5-71.5c-3.8-7.22-8.54-10.76-12.95-12.37-6.2-2.26-13.56-7.53-16.05-13.63-5.65-13.87-29.78-20.66-43-10Z"/>
  <path class="cls-12" d="m502.21,318.7c8.87-8.39,12.85-16.43,21.61-30.47,0,0,10.48-3.39,14.31,12.06,3.83,15.45,20.49,13.01,20.49,13.01,0,0,9.6-1.28,13.72,7.81,6.96,15.37-10.31,23.69-10.31,23.69l10.52,21.01.91,13.33-40.33,7.89.78-26.47s-16.78,3.54-27.07-10.28c-9-12.09-.64-28.65-.64-28.65l-3.78-1.69c-.48-.22-.58-.85-.2-1.22Z"/>
  <path class="cls-1" d="m553.86,330.3l10.27-4.18"/>
  <path class="cls-11" d="m547.67,352.24l-13.78,8.31-.73,17.48,14.51-25.79Z"/>
  <path class="cls-3" d="m520.66,327.07c.55.05.95.55.9,1.1l-.99-.1q.99.1.99.1h0s0,0,0,0v.02s0,.03,0,.04c0,.04-.01.08-.02.14-.02.12-.05.28-.1.47-.1.38-.28.89-.6,1.43-.64,1.1-1.85,2.24-3.94,2.48-2.01.22-3.39-.38-4.27-1.12-.43-.36-.72-.73-.91-1.03-.09-.15-.16-.27-.21-.37-.02-.05-.04-.09-.06-.12,0-.02-.01-.03-.02-.04v-.02s0,0,0,0h0s0,0,0,0t.93-.37l-.93.37c-.2-.51.05-1.1.56-1.3.51-.2,1.09.04,1.29.55h0s0,.02.02.04c.02.04.05.1.1.18.1.16.27.37.52.58.47.39,1.31.83,2.76.66,1.36-.15,2.06-.85,2.44-1.51.2-.34.32-.68.39-.93.03-.12.05-.23.07-.29,0-.03,0-.06.01-.07h0c.06-.56.55-.95,1.09-.9Z"/>
  <path class="cls-11" d="m525.27,312.79c-.9,2.03-2.68,3.22-3.96,2.65-1.28-.57-1.59-2.68-.69-4.71.9-2.03,2.68-3.22,3.96-2.65,1.28.57,1.59,2.68.69,4.71Z"/>
  <path class="cls-16" d="m490.42,416.27l18.43,107.01h113c4.8,0,8.46-4.3,7.7-9.04l-1.06-6.55-18.66-109.19c-2.84-16.6-18.48-27.85-35.12-25.26l-42.87,5.46-13.52,1.23c-18.12,1.65-30.99,18.4-27.9,36.34Z"/>
  <path class="cls-4" d="m612.49,418.39c.06.55-.34,1.04-.89,1.1l-118.5,12.5c-.55.06-1.04-.34-1.1-.89-.06-.55.34-1.04.89-1.1l118.5-12.5c.55-.06,1.04.34,1.1.89Zm7.5,39.47c.07.55-.31,1.05-.86,1.13l-117,16c-.55.08-1.05-.31-1.13-.86-.07-.55.31-1.05.86-1.13l117-16c.55-.08,1.05.31,1.13.86Zm5.5,31.48c.09.55-.28,1.06-.83,1.15l-117.5,19c-.54.09-1.06-.28-1.15-.83-.09-.55.28-1.06.83-1.15l117.5-19c.55-.09,1.06.28,1.15.83Z"/>
  <path class="cls-12" d="m365.82,525.8l15.81-.95,95.46-1.48c14.96-.23,25.68-14.54,21.69-28.96-3.22-11.67-14.98-18.8-26.81-16.28l-101.11,21.56-17.14-7.57-9.43-4.97c-2.05-1.08-4.56-.61-6.09,1.13l-9.11,10.39-11.49,7.01c-1.91,1.16-1.92,3.93-.02,5.11l5.5,3.42,13.39-.8,7.21,5.58c6.32,4.88,14.19,7.31,22.16,6.83Z"/>
  <path class="cls-3" d="m349.27,490.37c.19.52-.08,1.09-.6,1.28l-16.5,6c-.52.19-1.09-.08-1.28-.6-.19-.52.08-1.09.6-1.28l16.5-6c.52-.19,1.09.08,1.28.6Z"/>
  <path class="cls-3" d="m341.74,499.8c.22.51,0,1.1-.51,1.32l-21.5,9.5c-.51.22-1.1,0-1.32-.51-.22-.51,0-1.1.51-1.32l21.5-9.5c.51-.22,1.1,0,1.32.51Z"/>
  <path class="cls-12" d="m469.36,448.86c7.34-13.19,23.99-17.93,37.18-10.59,13.19,7.34,17.93,23.99,10.59,37.18l-17.07,30.67c-7.34,13.19-23.99,17.93-37.18,10.59-13.19-7.34-17.93-23.98-10.59-37.18l17.07-30.67Z"/>
  <path class="cls-16" d="m491.35,400.15c7.4-15.7,26.44-22,41.74-13.82,15.17,8.11,20.57,27.2,11.89,42.05l-33.8,57.87-47.93-26.5,28.09-59.6Z"/>
  <path class="cls-4" d="m491.16,397.96c.3-.47.92-.6,1.38-.31l49.5,31.5c.47.3.6.92.31,1.38-.3.47-.91.6-1.38.31l-49.5-31.5c-.47-.3-.6-.92-.31-1.38Zm-13,29.5c.3-.46.92-.6,1.38-.3l47.5,30.5c.47.3.6.92.3,1.38-.3.46-.92.6-1.38.3l-47.5-30.5c-.46-.3-.6-.92-.3-1.38Z"/>
  <path class="cls-3" d="m538.73,437.11c10.79-18.48,2.31-42.23-17.76-49.69-.52-.19-.78-.77-.59-1.29.19-.52.77-.78,1.29-.59,21.23,7.89,30.21,33.01,18.79,52.57l-28.41,48.64c-.28.48-.89.64-1.37.36-.48-.28-.64-.89-.36-1.37l28.41-48.64Z"/>
  <path class="cls-4" d="m571.97,292.16l-11.5,35-.95-.31,11.5-35,.95.31Z"/>
  <path class="cls-15" d="m579,329.5c0,10.22-8.28,18.5-18.5,18.5s-18.5-8.28-18.5-18.5,8.28-18.5,18.5-18.5,18.5,8.28,18.5,18.5Z"/>
  <path class="cls-6" d="m561,342c6.63,0,12-5.37,12-12s-5.37-12-12-12-12,5.37-12,12,5.37,12,12,12Zm0,1c7.18,0,13-5.82,13-13s-5.82-13-13-13-13,5.82-13,13,5.82,13,13,13Z"/>
  <rect class="cls-16" y="16" width="396.7" height="274.97" rx="16.69" ry="16.69"/>
  <path class="cls-18" d="m69.47,273.43c0-2.35,1.56-4.26,3.49-4.26h310.86c1.92,0,3.48,1.9,3.48,4.26v13.61c0,2.35-1.56,4.25-3.48,4.25H72.96c-1.92,0-3.49-1.9-3.49-4.25v-13.61Z"/>
  <path class="cls-11" d="m125.22,23.44c46.25,5.51,48.57,81.05,16.63,93.17-20.47,7.77-32.6,6.49-32.6,6.49l-38.98,41.41s-35.24-8.81-35.24-41.41,31.82-46.8,36.78-51.76c4.96-4.96,7.16-53.41,53.41-47.9Z"/>
  <path class="cls-10" d="m169.49,238.27l-8.57-46.2,17.62-38.1,16.19,27.15,26.67-61.92,7.57-12.93c2.39-4.09,6.77-6.6,11.51-6.6h43.44c1.04,0,1.33,1.42.38,1.83l-19.07,8.17-1.69,10.12c-.73,4.39-3.61,8.13-7.67,9.96l-8.27,3.74-30.49,90.82c-6.7,19.95-31.21,27.14-47.62,13.96Z"/>
  <path class="cls-13" d="m158.53,119.68l-19.05,28.58,15.72,47.63,40.01-16.19-36.68-60.01Z"/>
  <path class="cls-2" d="m160.61,155.56l9.95,38.49"/>
  <path class="cls-13" d="m132.34,108.72l-29.05-2.38s-19.53-.83-39.06,13.81c-21.91,16.43-39.06,73.35-39.06,73.35l41.91,1.43-20.48,78.59,135.27-4.29s-7.62-132.41-24.77-150.99c-6.66-7.21-24.77-9.53-24.77-9.53Z"/>
  <path class="cls-15" d="m104,269.5V106.5l30.5,2.5,18.5,162-49-1.5Z"/>
  <path class="cls-3" d="m160.27,128.03c.54-.13,1.08.21,1.2.74l13.5,57.5c.13.54-.21,1.08-.74,1.2-.54.13-1.08-.21-1.2-.74l-13.5-57.5c-.13-.54.21-1.08.75-1.2Z"/>
  <path class="cls-11" d="m174.47,261.15c0-2.77,2.24-5.01,5.01-5.01h143.31c2.77,0,5.01,2.24,5.01,5.01v4.01c0,2.77-2.24,5.01-5.01,5.01h-143.31c-2.77,0-5.01-2.24-5.01-5.01v-4.01Z"/>
  <path class="cls-11" d="m255.45,191.28c.72-1.97,2.6-3.29,4.7-3.29h102.41c3.53,0,5.95,3.55,4.67,6.83l-29.4,75.35h-111.24l28.86-78.89Z"/>
  <path class="cls-8" d="m300.08,234.69c3.53,1.6,7.69.03,9.29-3.51,1.6-3.53.03-7.69-3.51-9.29-3.53-1.6-7.69-.03-9.29,3.51-1.6,3.53-.03,7.69,3.51,9.29Zm-.61,1.34c4.28,1.93,9.31.03,11.24-4.24,1.93-4.28.03-9.31-4.24-11.24-4.28-1.93-9.31-.03-11.24,4.25-1.93,4.28-.03,9.31,4.25,11.24Z"/>
  <path class="cls-10" d="m11.36,246.84l13.81-53.34,42.39,1.43-11.91,50.96,77.64.95,18.93-3.15c4.42-.74,8.96-.11,13.01,1.81l21.55,10.17c1.01.48.52,2-.58,1.8l-27.19-4.91,28.91,13.34c.76.35.73,1.45-.06,1.75l-3.94,1.52c-.1.04-.2.06-.3.06l-44.14,1.9-97.93,12.73c-20.69,2.69-36.99-17.3-30.19-37.02Z"/>
  <path class="cls-3" d="m155.03,260.25c.14-.54.68-.86,1.22-.72l29,7.5c.53.14.86.68.72,1.22-.14.54-.68.86-1.22.72l-29-7.5c-.54-.14-.86-.68-.72-1.22Z"/>
  <path class="cls-10" d="m132.79,96.1s11.11,2.17,17.74-6.36c6.62-8.53,1.54-21.09,1.54-21.09l-8.29-25.73s-5.56,10.68-19.78,8.08-10.67,16.26-10.67,16.26c0,0-14.8-7.66-16.34,5.8-1.09,9.51,9.87,12.74,9.87,12.74l-3.09,20.07s1.36,9.89,14.76,10.48c13.8.61,15.07-7.4,15.07-7.4l-.8-12.83Z"/>
  <path class="cls-3" d="m103.67,72.39c-.34.44-.25,1.07.18,1.4l6.5,5c.44.34,1.07.25,1.4-.18.34-.44.25-1.07-.18-1.4l-6.5-5c-.44-.34-1.07-.25-1.4.18Z"/>
  <path class="cls-3" d="m138.21,80.23c.4.38.42,1.01.03,1.41l-.72-.69q.72.69.72.69h0s0,0,0,0h0s-.01.01-.01.01c0,0-.02.02-.03.03-.03.02-.06.06-.1.09-.08.08-.2.18-.35.29-.3.22-.73.5-1.27.72-1.12.44-2.69.6-4.39-.44-1.63-1-2.31-2.25-2.54-3.32-.11-.52-.11-.97-.08-1.3.01-.16.04-.3.06-.4,0-.05.02-.09.03-.12,0-.02,0-.03.01-.04v-.02s0,0,0,0h0s0,0,0,0t.96.28l-.96-.28c.15-.53.71-.83,1.24-.68.53.15.83.7.68,1.23,0,0,0,.02,0,.03,0,.04-.02.1-.03.18-.01.17-.01.42.05.71.12.54.48,1.33,1.63,2.04,1.07.66,1.97.54,2.61.29.34-.13.62-.31.81-.46.09-.07.17-.13.21-.17.02-.02.04-.03.04-.04h0c.38-.4,1.01-.41,1.41-.04Z"/>
  <path class="cls-3" d="m139.45,64.08c.51-.22,1.1.02,1.31.53l3.79,8.88c.42.98-.14,2.1-1.18,2.36l-3.44.85c-.54.13-1.08-.19-1.21-.73-.13-.54.19-1.08.73-1.21l3.13-.78-3.67-8.59c-.22-.51.02-1.1.53-1.31Z"/>
  <path class="cls-11" d="m133.39,105.61l-.12-9.54-16.16-6.62,16.28,16.16Z"/>
  <path class="cls-11" d="m147.12,62.25c.5,1.69.05,3.32-1.02,3.64-1.07.32-2.34-.8-2.85-2.49-.5-1.69-.05-3.32,1.02-3.64,1.07-.32,2.34.8,2.85,2.49Z"/>
  <path class="cls-11" d="m131.88,67.96c.5,1.69.05,3.32-1.02,3.64-1.07.32-2.34-.8-2.85-2.49-.5-1.69-.05-3.32,1.02-3.64,1.07-.32,2.34.8,2.85,2.49Z"/>
  <path class="cls-5" d="m304,95.7c-2.51-7.3-3.87-15.13-3.87-23.27,0-40.01,32.85-72.44,73.37-72.44s73.36,32.43,73.36,72.44-32.85,72.44-73.36,72.44c-24.88,0-46.87-12.23-60.13-30.93h-11.41c-3.82,0-6.2-4.15-4.27-7.44l6.32-10.8Z"/>
  <path class="cls-4" d="m407.79,56.05c0-.28-.22-.5-.5-.5h-65.12c-.28,0-.5.22-.5.5s.22.5.5.5h65.12c.28,0,.5-.22.5-.5Zm0,31.32c0-.28-.22-.5-.5-.5h-65.12c-.28,0-.5.22-.5.5s.22.5.5.5h65.12c.28,0,.5-.22.5-.5Z"/>
  <path class="cls-13" d="m362,247.36c0-8.48,6.88-15.36,15.36-15.36h89.28c8.48,0,15.36,6.88,15.36,15.36v79.19c0,4.02-4.49,6.39-7.81,4.13l-14.16-9.64c-1-.68-2.17-1.04-3.38-1.04h-79.29c-8.48,0-15.36-6.88-15.36-15.36v-57.28Z"/>
  <path class="cls-4" d="m381.5,260c0-.28.22-.5.5-.5h79c.28,0,.5.22.5.5s-.22.5-.5.5h-79c-.28,0-.5-.22-.5-.5Z"/>
  <path class="cls-4" d="m381.5,274c0-.28.22-.5.5-.5h79c.28,0,.5.22.5.5s-.22.5-.5.5h-79c-.28,0-.5-.22-.5-.5Z"/>
  <path class="cls-4" d="m381.5,288c0-.28.22-.5.5-.5h79c.28,0,.5.22.5.5s-.22.5-.5.5h-79c-.28,0-.5-.22-.5-.5Z"/>
  <path class="cls-9" d="m211,327h-126c-6.08,0-11,4.92-11,11v126c0,6.08,4.92,11,11,11h126c6.07,0,11-4.92,11-11v-126c0-6.08-4.93-11-11-11Zm-126-1c-6.63,0-12,5.37-12,12v126c0,6.63,5.37,12,12,12h126c6.63,0,12-5.37,12-12v-126c0-6.63-5.37-12-12-12h-126Z"/>
  <path class="cls-5" d="m149,430c20.85,0,37-15.62,37-34s-16.15-34-37-34-37,15.62-37,34,16.15,34,37,34Zm0,6c23.75,0,43-17.91,43-40s-19.25-40-43-40-43,17.91-43,40,19.25,40,43,40Z"/>
  <path class="cls-16" d="m104.79,390.97c1.32-4.15,5.17-6.97,9.53-6.97h68.37c4.36,0,8.21,2.82,9.53,6.97l13.65,43c2.05,6.45-2.77,13.03-9.53,13.03h-95.67c-6.76,0-11.58-6.58-9.53-13.03l13.65-43Z"/>
  <path class="cls-14" d="m150.86,422.24c-2.04,2.25-5.59,2.18-7.54-.15l-31.62-37.84h73.61l-34.45,37.99Z"/>
  <path class="cls-15" d="m155,421c0,4.42-3.58,8-8,8s-8-3.58-8-8,3.58-8,8-8,8,3.58,8,8Z"/>
  <path class="cls-18" d="m470,105.52c0-4.15,3.37-7.52,7.52-7.52h78.96c4.15,0,7.52,3.37,7.52,7.52v78.96c0,4.15-3.37,7.52-7.52,7.52h-78.96c-4.15,0-7.52-3.37-7.52-7.52v-78.96Z"/>
  <path class="cls-17" d="m486,133c0-1.66,1.34-3,3-3h55c1.66,0,3,1.34,3,3v24c0,1.66-1.34,3-3,3h-55c-1.66,0-3-1.34-3-3v-24Z"/>
  <path class="cls-3" d="m516.5,151c3.59,0,6.5-2.91,6.5-6.5s-2.91-6.5-6.5-6.5-6.5,2.91-6.5,6.5,2.91,6.5,6.5,6.5Zm0,1c4.14,0,7.5-3.36,7.5-7.5s-3.36-7.5-7.5-7.5-7.5,3.36-7.5,7.5,3.36,7.5,7.5,7.5Z"/>
  <path class="cls-11" d="m510,42c0,4.42-3.58,8-8,8s-8-3.58-8-8,3.58-8,8-8,8,3.58,8,8Z"/>
  <path class="cls-7" d="m617,213c2.21,0,4-1.79,4-4s-1.79-4-4-4-4,1.79-4,4,1.79,4,4,4Zm0,1c2.76,0,5-2.24,5-5s-2.24-5-5-5-5,2.24-5,5,2.24,5,5,5Z"/>
  <path class="cls-16" d="m223,505c0,2.76-2.24,5-5,5s-5-2.24-5-5,2.24-5,5-5,5,2.24,5,5Z"/>
  <path class="cls-5" d="m19,348c2.21,0,4-1.79,4-4s-1.79-4-4-4-4,1.79-4,4,1.79,4,4,4Zm0,1c2.76,0,5-2.24,5-5s-2.24-5-5-5-5,2.24-5,5,2.24,5,5,5Z"/>
</svg>