<?xml version="1.0" encoding="UTF-8"?>
<svg id="Lager_1" data-name="Lager 1" xmlns="http://www.w3.org/2000/svg" viewBox="0 0 596 497">
  <defs>
    <style>
      .cls-1, .cls-2, .cls-3, .cls-4, .cls-5 {
        fill-rule: evenodd;
      }

      .cls-1, .cls-2, .cls-3, .cls-4, .cls-5, .cls-6, .cls-7, .cls-8, .cls-9, .cls-10, .cls-11, .cls-12, .cls-13, .cls-14 {
        stroke-width: 0px;
      }

      .cls-1, .cls-7 {
        fill: #5d2b0e;
      }

      .cls-2, .cls-12 {
        fill: #fb5;
      }

      .cls-3, .cls-11 {
        fill: #fff;
      }

      .cls-4, .cls-14 {
        fill: #f2796b;
      }

      .cls-5, .cls-9 {
        fill: #b9e6f0;
      }

      .cls-15 {
        fill: none;
        stroke: #eedfc9;
      }

      .cls-6 {
        fill: #f99184;
      }

      .cls-8 {
        fill: #d2775d;
      }

      .cls-10 {
        fill: #80b483;
      }

      .cls-13 {
        fill: #eedfc9;
      }
    </style>
  </defs>
  <path class="cls-7" d="m54,308h217v21H54v-21Z"/>
  <path class="cls-1" d="m375,184h6c6.08,0,11,4.93,11,11v32h-2v-32c0-4.97-4.03-9-9-9h-6v-2Z"/>
  <path class="cls-7" d="m192.62,52.17c0,21.64,17.33,39.17,38.71,39.17s38.71-17.54,38.71-39.17-17.33-39.17-38.71-39.17-38.71,17.54-38.71,39.17Z"/>
  <path class="cls-9" d="m191.95,62.96l64.76-46.16c-7.06-5.62-16.01-8.98-25.74-8.98-22.85,0-41.37,18.52-41.37,41.37,0,4.83.83,9.46,2.35,13.77Z"/>
  <path class="cls-13" d="m191.79,63.16c-2.37-3.42-1.51-8.12,1.91-10.48L267.27,1.79c2.93-2.03,6.93.07,6.93,3.63,0,.48-.24.94-.64,1.21l-81.78,56.53Z"/>
  <path class="cls-6" d="m275.21,57.52c-6.06-7.46-8.34-14.13-13.74-25.99,0,0-7.83-3.72-12.4,7.94-4.57,11.66-17.32,8.05-17.32,8.05,0,0-7.36-1.98-11.5,4.69-7,11.28,5.62,19.54,5.62,19.54l-10.36,15.31-2.07,10.31,30.66,10.29,2.11-20.73s12.73,4.49,22.17-5.25c8.26-8.51,3.43-22.29,3.43-22.29l3.12-.93c.4-.12.54-.61.28-.93Z"/>
  <path class="cls-1" d="m225.27,56.46c-.27.48-.1,1.09.38,1.36l7.59,4.32c.48.27,1.09.11,1.36-.37.27-.48.11-1.09-.38-1.36l-7.59-4.32c-.48-.27-1.09-.11-1.36.37Z"/>
  <path class="cls-7" d="m236.3,79.02l9.9,7.9-1.22,13.71-8.68-21.61Z"/>
  <path class="cls-1" d="m259.96,61.94c-.55-.02-1.01.42-1.03.97l1,.03q-1-.03-1-.03h0s0,0,0,0h0v.05s0,.07,0,.12c0,.1.01.23.04.4.04.32.13.76.33,1.23.41.97,1.28,2.04,2.97,2.46,1.6.39,2.8.05,3.61-.46.39-.25.67-.53.86-.75.1-.11.17-.21.22-.28.03-.04.05-.07.06-.1,0-.01.01-.02.02-.03h0s0-.02,0-.02h0s0,0,0,0t-.87-.49l.87.49c.27-.48.1-1.09-.39-1.36-.48-.27-1.08-.1-1.35.37,0,0,0,0-.01.02-.02.02-.04.06-.08.11-.09.1-.22.24-.42.36-.36.23-1,.47-2.06.21-.97-.24-1.39-.8-1.61-1.3-.11-.27-.17-.52-.19-.71-.01-.09-.02-.17-.02-.21,0-.02,0-.04,0-.05m-.97-1.03c.55.02.98.47.97,1.02l-.97-1.02Z"/>
  <path class="cls-7" d="m257.82,50.54c.5,1.68,1.76,2.79,2.82,2.47,1.06-.31,1.52-1.93,1.02-3.61-.5-1.68-1.76-2.79-2.82-2.47-1.06.31-1.52,1.93-1.02,3.61Z"/>
  <path class="cls-9" d="m322.97,302.93l-114.61,5.42c-18.98.9-34.86-14.25-34.86-33.25,0-20.67,18.64-36.35,39.01-32.79l113.03,19.72c9.87,1.72,17.08,10.29,17.08,20.31,0,11.01-8.65,20.07-19.65,20.6Z"/>
  <path class="cls-9" d="m307.57,375.08l-9.17-87.64c-1.32-12.6,7.96-23.82,20.58-24.9,13.01-1.11,24.26,9,24.54,22.05l1.9,88.1c.28,13.09-12.46,22.53-24.9,18.44-7.1-2.33-12.18-8.62-12.95-16.06Z"/>
  <path class="cls-10" d="m266.47,128.77l12.43,124.73c.05.55-.35,1.04-.9,1.09l-101.5,9.9,4.04-31.99,13.01-112.94c.92-7.95,5.37-15.07,12.11-19.38l7.34-4.69,32.29,4.12,13.12,12.58c4.58,4.39,7.43,10.26,8.06,16.57Z"/>
  <path class="cls-10" d="m191.12,90.4l38.88,7.1-4,19-29.35,14.02c-8.98,4.29-19.74,1.33-25.26-6.95l-2.37-3.55c-3.24-4.86-1.64-11.45,3.46-14.29l8.52-4.73c-1.42-6.15,3.92-11.74,10.12-10.6Z"/>
  <path class="cls-7" d="m309.28,414.78l-1.28-35.6,35.23-1.27,11.24,17.63c18.04,8.17,43.45,13.5,43.61,17.92.06,1.76-53.34.48-88.8,1.31Z"/>
  <path class="cls-6" d="m262,123.35c-5.08-13.13-20.28-19.13-32.96-13.03-12.01,5.78-17.06,20.2-11.29,32.21l34.31,71.33c5.25,10.92,18.63,15.14,29.2,9.23,9.13-5.11,13.11-16.16,9.33-25.92l-28.59-73.81Z"/>
  <path class="cls-6" d="m365.21,232.95l-13.16-.79-79.44-1.23c-12.45-.19-21.37-12.1-18.05-24.1,2.68-9.71,12.47-15.65,22.32-13.54l84.15,17.95,14.27-6.3,7.85-4.14c1.7-.9,3.8-.51,5.07.94l7.58,8.64,9.57,5.83c1.59.97,1.6,3.27.02,4.25l-4.58,2.85-11.15-.67-6,4.64c-5.26,4.06-11.81,6.08-18.44,5.68Z"/>
  <path class="cls-1" d="m378.99,203.46c-.16.43.07.91.5,1.07l13.73,4.99c.43.16.91-.07,1.07-.5.16-.43-.07-.91-.5-1.07l-13.73-4.99c-.43-.16-.91.07-1.07.5Z"/>
  <path class="cls-1" d="m385.25,211.31c-.19.42,0,.91.43,1.1l17.89,7.91c.42.19.91,0,1.1-.43.19-.42,0-.91-.42-1.1l-17.89-7.91c-.42-.19-.91,0-1.1.43Z"/>
  <path class="cls-10" d="m279.28,167.95l-40.54,18.21-20.99-43.64c-5.78-12.01-.72-26.43,11.29-32.21,12.68-6.1,27.88-.1,32.96,13.03l17.28,44.6Z"/>
  <path class="cls-1" d="m229.84,111.45c.3.46.17,1.08-.29,1.38l-2.94,1.94c-8.78,5.78-11.94,17.15-7.39,26.63l21.19,44.17c.24.5.03,1.1-.47,1.33-.5.24-1.1.03-1.33-.47l-21.19-44.17c-4.98-10.38-1.52-22.84,8.1-29.16l2.94-1.94c.46-.3,1.08-.17,1.39.29Z"/>
  <path class="cls-6" d="m68.47,201.94c0-4.38,3.55-7.94,7.94-7.94h97.66c4.38,0,7.94,3.55,7.94,7.94v97.65c0,4.39-3.55,7.94-7.94,7.94h-97.66c-4.38,0-7.94-3.55-7.94-7.94v-97.65Z"/>
  <path class="cls-14" d="m51,201.94c0-4.39,3.55-7.94,7.94-7.94h97.65c4.39,0,7.94,3.55,7.94,7.94v97.65c0,4.39-3.55,7.94-7.94,7.94H58.94c-4.38,0-7.94-3.55-7.94-7.94v-97.65Z"/>
  <path class="cls-7" d="m94.67,194h24.61v30.66c0,1.67-1.68,2.83-3.24,2.22l-8.2-3.18c-.55-.21-1.17-.21-1.72,0l-8.2,3.18c-1.56.6-3.24-.55-3.24-2.22v-30.66Z"/>
  <path class="cls-12" d="m66.57,88.56c.25-4.8,4.22-8.56,9.03-8.56h73.24c4.81,0,8.77,3.76,9.03,8.56l5.57,105.92H61l5.57-105.92Z"/>
  <path class="cls-3" d="m88.87,98.33c.28,0,.5.22.5.5v4.14c0,10.75,8.71,19.46,19.46,19.46s19.46-8.71,19.46-19.46v-4.14c0-.28.22-.5.5-.5s.5.22.5.5v4.14c0,11.3-9.16,20.46-20.46,20.46s-20.46-9.16-20.46-20.46v-4.14c0-.28.22-.5.5-.5Z"/>
  <path class="cls-7" d="m163.44,194.49l-6.03-109.22,19.09,109.22-7-3.49-6.06,3.49Z"/>
  <path class="cls-3" d="m143.85,156.32h-64.78c-1.94,0-3.52,1.57-3.52,3.52v12.05c0,1.94,1.58,3.52,3.52,3.52h64.78c1.94,0,3.52-1.58,3.52-3.52v-12.05c0-1.94-1.58-3.52-3.52-3.52Zm-64.78-1c-2.5,0-4.52,2.02-4.52,4.52v12.05c0,2.5,2.02,4.52,4.52,4.52h64.78c2.5,0,4.52-2.02,4.52-4.52v-12.05c0-2.5-2.02-4.52-4.52-4.52h-64.78Z"/>
  <path class="cls-13" d="m400,225h19c3.31,0,6,2.69,6,6v17c0,3.31-2.69,6-6,6h-19v-29Z"/>
  <path class="cls-7" d="m400,225h19v29h-19v-29Z"/>
  <path class="cls-1" d="m132.45,354.21l-38.5-26.5,5.1-7.41,38.5,26.5-5.1,7.41Z"/>
  <path class="cls-12" d="m120.5,433l1.58-56.41c.57-20.28,12.53-38.51,30.92-47.09h112.21c7.98,0,12.69,8.93,8.2,15.52l-5.65,8.27c-11.21,16.42-9.32,38.46,4.52,52.73,5.26,5.42,12.48,8.48,20.03,8.48h79.74c8.62,0,16.28-5.53,18.99-13.72l5.78-17.46c8.6-25.98,9.4-53.91,2.29-80.34l-17.61-65.49,3.22,1.08c28.94,9.74,49.81,35.1,53.79,65.38l16.99,129.04H120.5Z"/>
  <path class="cls-7" d="m222,432c0,35.9-29.1,65-65,65s-65-29.1-65-65,29.1-65,65-65,65,29.1,65,65Z"/>
  <path class="cls-11" d="m192,432c0,19.33-15.67,35-35,35s-35-15.67-35-35,15.67-35,35-35,35,15.67,35,35Z"/>
  <path class="cls-7" d="m529,432c0,35.9-29.1,65-65,65s-65-29.1-65-65,29.1-65,65-65,65,29.1,65,65Z"/>
  <path class="cls-11" d="m499,432c0,19.33-15.67,35-35,35s-35-15.67-35-35,15.67-35,35-35,35,15.67,35,35Z"/>
  <path class="cls-13" d="m545,434.5c0-21.61-8.59-42.35-23.87-57.63-15.28-15.28-36.01-23.87-57.63-23.87s-42.35,8.59-57.63,23.87-23.87,36.01-23.87,57.63h163Z"/>
  <path class="cls-13" d="m238,432.5c0-21.61-8.59-42.35-23.87-57.63s-36.01-23.87-57.63-23.87-42.35,8.59-57.63,23.87c-15.28,15.28-23.87,36.01-23.87,57.63h163Z"/>
  <path class="cls-2" d="m118,386c0-.55.45-1,1-1h70c.55,0,1,.45,1,1s-.45,1-1,1h-70c-.55,0-1-.45-1-1Z"/>
  <path class="cls-2" d="m428,386c0-.55.45-1,1-1h70c.55,0,1,.45,1,1s-.45,1-1,1h-70c-.55,0-1-.45-1-1Z"/>
  <path class="cls-2" d="m118,403.5c0-.55.45-1,1-1h70c.55,0,1,.45,1,1s-.45,1-1,1h-70c-.55,0-1-.45-1-1Z"/>
  <path class="cls-2" d="m428,403.5c0-.55.45-1,1-1h70c.55,0,1,.45,1,1s-.45,1-1,1h-70c-.55,0-1-.45-1-1Z"/>
  <path class="cls-13" d="m405,237.5c0,9.11-7.39,16.5-16.5,16.5s-16.5-7.39-16.5-16.5,7.39-16.5,16.5-16.5,16.5,7.39,16.5,16.5Z"/>
  <path class="cls-1" d="m371.84,200.04c1.3-2.85,2.16-6.93,2.16-11.54s-.86-8.69-2.16-11.54c-1.38-3.03-2.89-3.96-3.84-3.96-.84,0-2.13.78-3.29,3.83-1.08,2.86-1.71,6.98-1.71,11.67s.63,8.8,1.71,11.67c1.15,3.05,2.44,3.83,3.29,3.83.95,0,2.45-.93,3.84-3.96Zm-3.84,5.96c4.42,0,8-7.84,8-17.5s-3.58-17.5-8-17.5-7,7.84-7,17.5,2.58,17.5,7,17.5Z"/>
  <path class="cls-8" d="m428,85c0,24.85-20.15,45-45,45s-45-20.15-45-45,20.15-45,45-45,45,20.15,45,45Z"/>
  <path class="cls-13" d="m366.08,75.63c0-1.53,1.24-2.76,2.76-2.76h27.97c1.53,0,2.76,1.24,2.76,2.76v23.83c0,1.53-1.24,2.76-2.76,2.76h-27.97c-1.53,0-2.76-1.24-2.76-2.76v-23.83Z"/>
  <path class="cls-7" d="m367.29,67h30.73l6.76,14.3c1.05,2.23-.5,4.82-2.97,4.93l-4.66.21c-1.24.06-2.49-.15-3.65-.6l-3.24-1.26c-.79-.31-1.65-.31-2.45-.02l-3.54,1.31c-1.16.43-2.43.43-3.58,0l-3.42-1.26c-.86-.32-1.82-.28-2.65.11l-2.07.97c-1.19.56-2.48.84-3.8.84h-6.1c-1.73,0-2.9-1.77-2.23-3.36l6.86-16.15Z"/>
  <path class="cls-3" d="m376.8,69.76c.1,0,.17.09.16.18l-.86,13.99c0,.1-.09.17-.18.16-.1,0-.17-.09-.16-.18l.86-13.99c0-.1.09-.17.18-.16Zm12.07,0c.1,0,.18.07.18.17l.52,13.99c0,.1-.07.18-.17.18-.1,0-.18-.07-.18-.17l-.52-13.99c0-.1.07-.18.17-.18Z"/>
  <path class="cls-11" d="m377.82,91.86c0-.95.77-1.73,1.73-1.73h6.22c.95,0,1.73.77,1.73,1.73v10.36h-9.67v-10.36Z"/>
  <path class="cls-5" d="m584,131h-111c-6.08,0-11,4.93-11,11v111c0,6.08,4.92,11,11,11h111c6.08,0,11-4.92,11-11v-111c0-6.07-4.92-11-11-11Zm-111-1c-6.63,0-12,5.37-12,12v111c0,6.63,5.37,12,12,12h111c6.63,0,12-5.37,12-12v-111c0-6.63-5.37-12-12-12h-111Z"/>
  <path class="cls-13" d="m502,173h53v49h-53v-49Z"/>
  <path class="cls-3" d="m550,177h-42c-.55,0-1,.45-1,1v39c0,.55.45,1,1,1h42c.55,0,1-.45,1-1v-39c0-.55-.45-1-1-1Zm-42-1c-1.1,0-2,.9-2,2v39c0,1.1.9,2,2,2h42c1.1,0,2-.9,2-2v-39c0-1.1-.9-2-2-2h-42Z"/>
  <path class="cls-12" d="m483,183c0-5.52,4.48-10,10-10h9v49h-9c-5.52,0-10-4.48-10-10v-29Z"/>
  <path class="cls-14" d="m555,173h9c5.52,0,10,4.48,10,10v29c0,5.52-4.48,10-10,10h-9v-49Z"/>
  <path class="cls-11" d="m566.67,185.67c0,.92-.75,1.67-1.67,1.67s-1.67-.75-1.67-1.67.75-1.67,1.67-1.67,1.67.75,1.67,1.67Z"/>
  <path class="cls-11" d="m563.33,189c0,.92-.75,1.67-1.67,1.67s-1.67-.75-1.67-1.67.75-1.67,1.67-1.67,1.67.75,1.67,1.67Z"/>
  <path class="cls-11" d="m570,189c0,.92-.75,1.67-1.67,1.67s-1.67-.75-1.67-1.67.75-1.67,1.67-1.67,1.67.75,1.67,1.67Z"/>
  <path class="cls-11" d="m566.67,192.33c0,.92-.75,1.67-1.67,1.67s-1.67-.75-1.67-1.67.75-1.67,1.67-1.67,1.67.75,1.67,1.67Z"/>
  <path class="cls-11" d="m569,207c0,2.21-1.79,4-4,4s-4-1.79-4-4,1.79-4,4-4,4,1.79,4,4Z"/>
  <path class="cls-11" d="m497,189c0,2.21-1.79,4-4,4s-4-1.79-4-4,1.79-4,4-4,4,1.79,4,4Z"/>
  <path class="cls-3" d="m492.51,203c-.55,0-1,.45-1,1v1.51h-1.51c-.55,0-1,.46-.99,1.01v1c0,.55.46,1,1.01.99h1.49s0,1.49,0,1.49c0,.55.45,1,1,1h1c.55,0,1-.45,1-1v-1.51h1.51c.55,0,1-.46.99-1.01v-1c0-.55-.46-1-1.01-1h-1.49s0-1.49,0-1.49c0-.55-.45-1-1-1h-1Z"/>
  <path class="cls-10" d="m489,130c0,14.91-12.09,27-27,27s-27-12.09-27-27,12.09-27,27-27,27,12.09,27,27Z"/>
  <path class="cls-3" d="m473.17,123.25c.2.19.22.5.03.71l-11.29,12.29c-.19.2-.5.22-.71.03l-7.04-6.47c-.2-.19-.22-.5-.03-.71.19-.2.5-.22.71-.03l6.67,6.13,10.95-11.93c.19-.2.5-.22.71-.03Z"/>
  <path class="cls-7" d="m16,187c0,4.42-3.58,8-8,8s-8-3.58-8-8,3.58-8,8-8,8,3.58,8,8Z"/>
  <path class="cls-14" d="m483,311c0,2.21-1.79,4-4,4s-4-1.79-4-4,1.79-4,4-4,4,1.79,4,4Z"/>
  <circle class="cls-15" cx="529" cy="88" r="3.5"/>
  <path class="cls-4" d="m140,15c3.87,0,7-3.13,7-7s-3.13-7-7-7-7,3.13-7,7,3.13,7,7,7Zm0,1c4.42,0,8-3.58,8-8s-3.58-8-8-8-8,3.58-8,8,3.58,8,8,8Z"/>
  <path class="cls-2" d="m538,352c2.21,0,4-1.79,4-4s-1.79-4-4-4-4,1.79-4,4,1.79,4,4,4Zm0,1c2.76,0,5-2.24,5-5s-2.24-5-5-5-5,2.24-5,5,2.24,5,5,5Z"/>
</svg>