<?xml version="1.0" encoding="UTF-8"?>
<svg id="Lager_1" data-name="Lager 1" xmlns="http://www.w3.org/2000/svg" viewBox="0 0 663 494.02">
  <defs>
    <style>
      .cls-1, .cls-2, .cls-3, .cls-4, .cls-5, .cls-6, .cls-7 {
        fill-rule: evenodd;
      }

      .cls-1, .cls-2, .cls-3, .cls-4, .cls-5, .cls-6, .cls-7, .cls-8, .cls-9, .cls-10, .cls-11, .cls-12, .cls-13, .cls-14, .cls-15, .cls-16 {
        stroke-width: 0px;
      }

      .cls-1, .cls-9 {
        fill: #5d2b0e;
      }

      .cls-2, .cls-14 {
        fill: #fb5;
      }

      .cls-3, .cls-13 {
        fill: #fff;
      }

      .cls-4, .cls-12 {
        fill: #80b483;
      }

      .cls-5, .cls-15 {
        fill: #eedfc9;
      }

      .cls-6, .cls-16 {
        fill: #f2796b;
      }

      .cls-7, .cls-11 {
        fill: #b9e6f0;
      }

      .cls-8 {
        fill: #f99184;
      }

      .cls-10 {
        fill: #d2775d;
      }
    </style>
  </defs>
  <path class="cls-1" d="m331.78,150.95c-1.15-3.52-3.41-7.9-6.93-12.38-3.52-4.48-7.25-7.71-10.4-9.65,1.15,3.52,3.41,7.9,6.93,12.38,3.52,4.48,7.25,7.7,10.4,9.65Zm.89,5.29s0-.1.05-.25c-.02.18-.04.25-.05.25Zm3.79-3.19c.16-.01.25,0,.25.01,0,0-.07.02-.25-.01Zm-22.9-29.43s0,.1-.05.25c.01-.18.04-.25.05-.25Zm-3.79,3.19c-.16.01-.25,0-.25-.01,0-.01.08-.02.25.01Zm32.51,37.49c6.6-5.19,3.37-20.31-7.21-33.77-10.58-13.46-24.51-20.16-31.11-14.97-6.6,5.19-3.37,20.31,7.21,33.77,10.58,13.46,24.51,20.16,31.12,14.97Z"/>
  <path class="cls-1" d="m345.72,150.86c1.18-3.49,3.42-7.8,6.89-12.21,3.47-4.41,7.13-7.6,10.24-9.57-1.18,3.49-3.42,7.8-6.88,12.21-3.47,4.41-7.13,7.6-10.24,9.57Zm-10.6,13.48c-6.57-5.17-3.32-20.26,7.27-33.72,10.58-13.46,24.49-20.18,31.06-15.01,6.57,5.17,3.32,20.26-7.27,33.72-10.58,13.46-24.49,20.18-31.06,15.01Z"/>
  <path class="cls-14" d="m266,159c0-5.52,4.48-10,10-10h123c5.52,0,10,4.48,10,10v123c0,5.52-4.48,10-10,10h-123c-5.52,0-10-4.48-10-10v-123Z"/>
  <path class="cls-9" d="m321,149h31v140c0,1.66-1.34,3-3,3h-25c-1.66,0-3-1.34-3-3v-140Z"/>
  <path class="cls-9" d="m525.88,76.17c0,21.64-17.33,39.17-38.71,39.17s-38.71-17.54-38.71-39.17,17.33-39.17,38.71-39.17,38.71,17.54,38.71,39.17Z"/>
  <path class="cls-9" d="m555,115c0,15.46-12.31,28-27.5,28s-27.5-12.54-27.5-28,12.31-28,27.5-28,27.5,12.54,27.5,28Z"/>
  <path class="cls-10" d="m446.29,79.52c6.06-7.46,8.34-14.13,13.74-25.99,0,0,7.83-3.72,12.4,7.94,4.57,11.66,17.32,8.05,17.32,8.05,0,0,7.36-1.98,11.5,4.69,7,11.28-5.62,19.54-5.62,19.54l10.36,15.31,2.07,10.3-30.66,10.29-2.11-20.74s-12.73,4.49-22.17-5.25c-8.26-8.51-3.43-22.29-3.43-22.29l-3.12-.93c-.4-.12-.54-.61-.28-.93Z"/>
  <path class="cls-1" d="m496.23,78.46c.27.48.11,1.09-.38,1.36l-7.59,4.32c-.48.27-1.09.11-1.36-.37-.27-.48-.11-1.09.38-1.36l7.59-4.32c.48-.27,1.09-.11,1.36.37Z"/>
  <path class="cls-9" d="m485.2,101.02l-9.9,7.9,1.22,13.71,8.68-21.61Z"/>
  <path class="cls-1" d="m461.54,83.94c.55-.02,1.01.42,1.03.97l-1,.03q1-.03,1-.03h0s0,0,0,0h0v.05s0,.07,0,.12c0,.1-.01.24-.04.4-.04.32-.13.76-.33,1.23-.41.97-1.28,2.04-2.97,2.46-1.6.39-2.8.05-3.61-.46-.39-.25-.67-.53-.86-.75-.1-.11-.17-.21-.22-.28-.03-.04-.05-.07-.06-.1,0-.01-.01-.02-.02-.03h0s0-.02,0-.02h0s0,0,0,0t.87-.49l-.87.49c-.27-.48-.1-1.09.39-1.36.48-.27,1.08-.1,1.35.37,0,0,0,0,.01.02.02.02.04.06.08.11.09.1.22.24.42.36.36.23,1,.47,2.06.21.97-.24,1.39-.8,1.61-1.3.11-.26.17-.52.19-.71.01-.09.02-.17.02-.21,0-.02,0-.04,0-.05m.97-1.03c-.55.02-.98.47-.97,1.02l.97-1.02Z"/>
  <path class="cls-9" d="m463.68,72.54c-.5,1.68-1.76,2.79-2.82,2.47-1.06-.31-1.52-1.93-1.02-3.61.5-1.68,1.76-2.79,2.82-2.47,1.06.31,1.52,1.93,1.02,3.61Z"/>
  <path class="cls-10" d="m542,453.42v-148.23c0-14.79-13.22-26.09-27.84-23.77-12.48,1.98-21.31,13.28-20.21,25.87l12.94,147.67c.8,9.08,8.4,16.05,17.52,16.05,9.71,0,17.58-7.87,17.58-17.58Z"/>
  <path class="cls-10" d="m490.17,454.32l1.54-149.78c.15-14.37-12.71-25.39-26.88-23.05-11.8,1.95-20.16,12.57-19.29,24.5l10.96,149.39c.65,8.81,7.98,15.62,16.81,15.62s16.76-7.44,16.85-16.68Z"/>
  <path class="cls-16" d="m447.83,158.04l-13.12,205.84c-.38,5.94,4.48,10.89,10.42,10.63l105.75-4.69c3.85-.17,6.75-3.57,6.32-7.4l-12.24-107.91-16.69-113.5c-1.12-7.63-5.5-14.4-12-18.56l-7.76-4.96-32.29,4.12-19.99,18.67c-4.96,4.63-7.96,10.99-8.39,17.76Z"/>
  <path class="cls-2" d="m531.14,159.3l-82.85,6.38-.38-4.99,82.85-6.38.38,4.99Zm5.77,43.45l-88.57,8.48-.48-4.98,88.57-8.48.48,4.98Zm6.3,42.5l-100.61,9.47-.47-4.98,100.61-9.47.47,4.98Zm4.66,36.02l-108.16,9.43-.44-4.98,108.16-9.43.43,4.98Zm3.83,36.49l-113.98,10.46-.46-4.98,113.98-10.46.46,4.98Z"/>
  <path class="cls-9" d="m491.79,491.62v-35.62h-35.25l-10.6,18.02c-17.73,8.82-42.94,15.05-42.94,19.47,0,1.76,53.32-1.43,88.79-1.88Z"/>
  <path class="cls-9" d="m542.5,491.5v-35.62h-35.25l-10.6,18.02c-17.73,8.82-42.94,15.05-42.94,19.47,0,1.76,53.32-1.43,88.79-1.88Z"/>
  <path class="cls-5" d="m492.42,475.62c.21.51-.03,1.1-.54,1.31l-38.5,16c-.51.21-1.1-.03-1.31-.54-.21-.51.03-1.1.54-1.31l38.5-16c.51-.21,1.1.03,1.31.54Z"/>
  <path class="cls-10" d="m459.49,145.35c5.08-13.13,20.28-19.13,32.96-13.03,12.01,5.78,17.06,20.2,11.29,32.21l-34.31,71.33c-5.25,10.92-18.63,15.14-29.2,9.23-9.13-5.11-13.11-16.16-9.33-25.92l28.59-73.81Z"/>
  <path class="cls-10" d="m357.49,211.95l20.85,3.89,71.56-4.81c10.82-.73,20,7.85,20,18.7s-9.87,19.99-21.06,18.6l-68.04-8.46-28.95-.56c-1.71-.03-3.08-1.43-3.08-3.14-2.1-.23-2.92-2.87-1.31-4.25l.08-.07-.32-.1c-1.93-.64-2.12-3.3-.3-4.21-1.64-.95-1.18-3.44.69-3.74l18.03-2.86-9.41-5.74c-.53-.32-.85-.89-.85-1.51,0-1.11,1.01-1.95,2.1-1.74Z"/>
  <path class="cls-1" d="m365.99,225.39c.06.55-.34,1.04-.88,1.1l-18,2c-.55.06-1.04-.34-1.1-.88-.06-.55.33-1.04.88-1.1l18-2c.55-.06,1.04.34,1.1.88Zm0,4.49c.07.55-.33,1.05-.88,1.11l-17,2c-.55.07-1.05-.33-1.11-.88-.07-.55.33-1.05.88-1.11l17-2c.55-.07,1.05.33,1.11.88Zm0,4.49c.07.55-.32,1.05-.86,1.12l-15.5,2c-.55.07-1.05-.32-1.12-.86-.07-.55.32-1.05.86-1.12l15.5-2c.55-.07,1.05.32,1.12.86Z"/>
  <path class="cls-9" d="m142.12,72.17c0,21.64,17.33,39.17,38.71,39.17s38.71-17.54,38.71-39.17-17.33-39.17-38.71-39.17-38.71,17.54-38.71,39.17Z"/>
  <path class="cls-11" d="m141.45,82.96l64.76-46.16c-7.06-5.62-16.01-8.98-25.74-8.98-22.85,0-41.37,18.52-41.37,41.37,0,4.83.83,9.46,2.35,13.77Z"/>
  <path class="cls-15" d="m141.29,83.16c-2.37-3.42-1.51-8.12,1.91-10.48l73.58-50.89c2.93-2.03,6.93.07,6.93,3.63,0,.48-.24.94-.63,1.21l-81.78,56.53Z"/>
  <path class="cls-8" d="m224.71,77.52c-6.06-7.46-8.34-14.13-13.74-25.99,0,0-7.83-3.72-12.4,7.94-4.57,11.66-17.32,8.05-17.32,8.05,0,0-7.36-1.98-11.5,4.69-7,11.28,5.62,19.54,5.62,19.54l-10.36,15.31-2.07,10.3,30.66,10.29,2.11-20.74s12.73,4.49,22.17-5.25c8.26-8.51,3.43-22.29,3.43-22.29l3.12-.93c.4-.12.54-.61.28-.93Z"/>
  <path class="cls-1" d="m174.77,76.46c-.27.48-.1,1.09.38,1.36l7.59,4.32c.48.27,1.09.11,1.36-.37.27-.48.1-1.09-.38-1.36l-7.59-4.32c-.48-.27-1.09-.11-1.36.37Z"/>
  <path class="cls-9" d="m185.8,99.02l9.9,7.9-1.22,13.71-8.68-21.61Z"/>
  <path class="cls-1" d="m209.46,81.94c-.55-.02-1.01.42-1.03.97l1,.03q-1-.03-1-.03h0s0,0,0,0h0v.05s0,.07,0,.12c0,.1.01.24.04.4.04.32.13.76.33,1.23.41.97,1.28,2.04,2.97,2.46,1.6.39,2.8.05,3.61-.46.39-.25.67-.53.86-.75.1-.11.17-.21.22-.28.03-.04.05-.07.06-.1,0-.01.01-.02.02-.03h0s0-.02,0-.02h0s0,0,0,0t-.87-.49l.87.49c.27-.48.1-1.09-.39-1.36-.48-.27-1.08-.1-1.35.37,0,0,0,0,0,.02-.01.02-.04.06-.09.11-.08.1-.22.24-.41.36-.36.23-1,.47-2.06.21-.97-.24-1.39-.8-1.61-1.3-.11-.26-.17-.52-.19-.71-.01-.09-.02-.17-.02-.21,0-.02,0-.04,0-.05m-.97-1.03c.55.02.98.47.97,1.02l-.97-1.02Z"/>
  <path class="cls-9" d="m207.32,70.54c.5,1.68,1.76,2.79,2.82,2.47,1.06-.31,1.52-1.93,1.02-3.61-.5-1.68-1.76-2.79-2.82-2.47-1.06.31-1.52,1.93-1.02,3.61Z"/>
  <path class="cls-11" d="m129,355.16v-83.77c0-15.21,13.12-27.11,28.26-25.62,14.58,1.43,25.03,14.72,22.98,29.23l-11.75,82.94c-1.39,9.78-9.76,17.06-19.64,17.06-10.96,0-19.84-8.88-19.84-19.84Z"/>
  <path class="cls-11" d="m66.43,395.3l63.94-56.49c8.82-7.8,22.16-7.48,30.61.72,9.97,9.68,8.89,25.99-2.27,34.26l-68.53,50.82c-8.18,6.07-19.7,4.55-26.03-3.42-6.24-7.86-5.24-19.24,2.29-25.89Z"/>
  <path class="cls-11" d="m180.27,452.66l-7.32-164.97c-.75-16.78,14.23-29.94,30.78-27.05,13.23,2.31,22.59,14.24,21.69,27.64l-11.01,164.77c-.6,8.98-8.06,15.96-17.06,15.96s-16.67-7.2-17.08-16.34Z"/>
  <path class="cls-12" d="m215.89,148.93l11.07,123.45c.55,6.11-4.48,11.26-10.6,10.87l-82.69-5.3c-3.87-.25-6.71-3.74-6.16-7.57l2.53-17.87,13.01-112.94c.92-7.95,5.37-15.07,12.11-19.38l7.34-4.69,32.29,4.12,13.01,12.48c4.64,4.45,7.51,10.43,8.09,16.83Z"/>
  <path class="cls-9" d="m179.21,489.62v-35.62h35.25l10.6,18.02c17.73,8.82,42.94,15.05,42.94,19.47,0,1.76-53.32-1.43-88.79-1.88Z"/>
  <path class="cls-9" d="m39.08,413.93l30.77-17.93,17.75,30.45-10.23,18.23c1.31,19.76,8.62,44.68,4.8,46.9-1.52.89-25.61-46.79-43.08-77.66Z"/>
  <path class="cls-8" d="m211.51,143.35c-5.09-13.13-20.28-19.13-32.96-13.03-12.01,5.78-17.06,20.2-11.29,32.21l34.31,71.33c5.25,10.92,18.63,15.14,29.2,9.23,9.13-5.11,13.11-16.16,9.33-25.92l-28.59-73.81Z"/>
  <path class="cls-8" d="m313.51,209.95l-20.85,3.89-71.56-4.81c-10.82-.73-20,7.85-20,18.7s9.87,19.99,21.06,18.6l68.04-8.46,28.95-.56c1.71-.03,3.08-1.43,3.08-3.14,2.1-.23,2.92-2.87,1.31-4.25l-.08-.07.32-.1c1.93-.64,2.12-3.3.3-4.21,1.64-.95,1.18-3.44-.69-3.74l-18.03-2.86,9.41-5.74c.53-.32.85-.89.85-1.51,0-1.11-1.01-1.95-2.1-1.74Z"/>
  <path class="cls-1" d="m305.01,223.39c-.06.55.34,1.04.88,1.1l18,2c.55.06,1.04-.34,1.1-.88.06-.55-.33-1.04-.88-1.1l-18-2c-.55-.06-1.04.34-1.1.88Zm0,4.49c-.07.55.33,1.05.88,1.11l17,2c.55.07,1.05-.33,1.11-.88.07-.55-.33-1.05-.88-1.11l-17-2c-.55-.07-1.05.33-1.11.88Zm0,4.49c-.07.55.32,1.05.86,1.12l15.5,2c.55.07,1.05-.32,1.12-.86.07-.55-.32-1.05-.86-1.12l-15.5-2c-.55-.07-1.05.32-1.12.86Z"/>
  <path class="cls-12" d="m228.78,187.95l-40.54,18.21-20.99-43.64c-5.78-12.01-.72-26.43,11.29-32.21,12.69-6.1,27.88-.1,32.96,13.03l17.28,44.6Z"/>
  <path class="cls-1" d="m179.34,131.45c.3.46.18,1.08-.29,1.39l-2.94,1.94c-8.78,5.77-11.94,17.15-7.39,26.63l21.19,44.17c.24.5.03,1.1-.47,1.33-.5.24-1.1.03-1.33-.47l-21.19-44.17c-4.98-10.38-1.52-22.84,8.1-29.16l2.94-1.94c.46-.3,1.08-.18,1.38.29Z"/>
  <path class="cls-16" d="m290.58,386.56c.25-4.8,4.22-8.56,9.03-8.56h73.24c4.81,0,8.77,3.76,9.03,8.56l5.57,105.93h-102.44l5.58-105.93Z"/>
  <path class="cls-3" d="m312.87,396.33c.28,0,.5.22.5.5v4.14c0,10.75,8.71,19.46,19.46,19.46s19.46-8.71,19.46-19.46v-4.14c0-.28.22-.5.5-.5s.5.22.5.5v4.14c0,11.3-9.16,20.46-20.46,20.46s-20.46-9.16-20.46-20.46v-4.14c0-.28.22-.5.5-.5Z"/>
  <path class="cls-9" d="m387.44,492.49l-6.03-109.22,19.09,109.22-7-3.49-6.06,3.49Z"/>
  <path class="cls-3" d="m367.85,454.32h-64.78c-1.94,0-3.52,1.58-3.52,3.52v12.05c0,1.94,1.57,3.52,3.52,3.52h64.78c1.94,0,3.52-1.58,3.52-3.52v-12.05c0-1.94-1.58-3.52-3.52-3.52Zm-64.78-1c-2.5,0-4.52,2.02-4.52,4.52v12.05c0,2.5,2.02,4.52,4.52,4.52h64.78c2.5,0,4.52-2.02,4.52-4.52v-12.05c0-2.5-2.02-4.52-4.52-4.52h-64.78Z"/>
  <path class="cls-11" d="m639.94,370.58c-10.16,15.13-25.45,22.66-34.16,16.82-8.71-5.85-7.55-22.86,2.61-37.99,10.16-15.13,25.45-22.66,34.16-16.82,8.71,5.85,7.55,22.85-2.61,37.99Z"/>
  <path class="cls-11" d="m577.49,371.15c15.79,11.13,23.7,27.1,17.65,35.68-6.04,8.58-23.75,6.51-39.54-4.62-15.79-11.13-23.7-27.1-17.66-35.68,6.04-8.58,23.75-6.51,39.54,4.62Z"/>
  <path class="cls-1" d="m627.76,352.57c.24.14.31.45.17.69l-18.69,30.56c-4.73,7.73-7.23,16.62-7.23,25.68v36c0,.28-.22.5-.5.5s-.5-.22-.5-.5v-35.74l-33.79-23.85c-.23-.16-.28-.47-.12-.7.16-.23.47-.28.7-.12l33.22,23.45c.17-8.91,2.71-17.63,7.37-25.24l18.69-30.56c.14-.24.45-.31.69-.17Z"/>
  <path class="cls-14" d="m581.53,440.2c-1.63-3.32.79-7.2,4.49-7.2h32.96c3.7,0,6.12,3.88,4.49,7.2l-5.66,11.55c-.53,1.07-.65,2.3-.35,3.45l7.92,30.55c.82,3.17-1.57,6.25-4.84,6.25h-36.08c-3.27,0-5.66-3.09-4.84-6.25l7.92-30.55c.3-1.16.17-2.38-.35-3.45l-5.66-11.55Z"/>
  <path class="cls-4" d="m66,198.53c35.64,0,64.53-28.89,64.53-64.53s-28.89-64.53-64.53-64.53S1.47,98.36,1.47,134s28.89,64.53,64.53,64.53Zm0,1.47c36.45,0,66-29.55,66-66s-29.55-66-66-66S0,97.55,0,134s29.55,66,66,66Z"/>
  <path class="cls-16" d="m41.18,120.26c0-2.24,1.81-4.05,4.05-4.05h41.02c2.24,0,4.05,1.81,4.05,4.05v34.95c0,2.24-1.81,4.05-4.05,4.05h-41.02c-2.24,0-4.05-1.81-4.05-4.05v-34.95Z"/>
  <path class="cls-12" d="m42.96,107.6h45.08l9.91,20.97c1.55,3.27-.74,7.06-4.36,7.22l-6.84.3c-1.83.08-3.65-.22-5.35-.88l-4.75-1.85c-1.15-.45-2.43-.46-3.59-.03l-5.2,1.91c-1.7.62-3.56.62-5.25,0l-5.02-1.85c-1.27-.47-2.67-.41-3.89.16l-3.04,1.42c-1.74.81-3.64,1.24-5.57,1.24h-8.94c-2.54,0-4.26-2.59-3.26-4.93l10.06-23.68Z"/>
  <path class="cls-3" d="m56.9,111.65c.14,0,.25.13.24.27l-1.27,20.51c0,.14-.13.25-.27.24-.14,0-.25-.13-.24-.27l1.27-20.51c0-.14.13-.25.27-.24Zm17.7,0c.14,0,.26.1.26.24l.76,20.51c0,.14-.1.26-.24.26s-.26-.1-.26-.24l-.76-20.51c0-.14.1-.26.24-.26Z"/>
  <path class="cls-13" d="m58.4,144.07c0-1.4,1.13-2.53,2.53-2.53h9.12c1.4,0,2.53,1.13,2.53,2.53v15.19h-14.18v-15.19Z"/>
  <path class="cls-15" d="m396.8,47.38c0,26.17-21.21,47.38-47.38,47.38s-47.38-21.21-47.38-47.38S323.25,0,349.42,0s47.38,21.21,47.38,47.38Z"/>
  <path class="cls-8" d="m324.38,33.72c0-1.18.96-2.14,2.14-2.14h46.57c1.18,0,2.14.96,2.14,2.14v27.77c0,1.18-.96,2.14-2.14,2.14h-46.57c-1.18,0-2.14-.96-2.14-2.14v-27.77Z"/>
  <path class="cls-9" d="m324.38,40.56h50.84v6.41h-50.84v-6.41Z"/>
  <path class="cls-13" d="m367.11,56.37c0,1.65-1.34,2.99-2.99,2.99s-2.99-1.34-2.99-2.99,1.34-2.99,2.99-2.99,2.99,1.34,2.99,2.99Z"/>
  <path class="cls-1" d="m367.96,58.36c1.1,0,1.99-.89,1.99-1.99s-.89-1.99-1.99-1.99-1.99.89-1.99,1.99.89,1.99,1.99,1.99Zm0,1c1.65,0,2.99-1.34,2.99-2.99s-1.34-2.99-2.99-2.99-2.99,1.34-2.99,2.99,1.34,2.99,2.99,2.99Z"/>
  <path class="cls-7" d="m392.16,103c10.94,0,19.8-8.86,19.8-19.8s-8.86-19.8-19.8-19.8-19.8,8.86-19.8,19.8,8.86,19.8,19.8,19.8Zm0,1c11.49,0,20.8-9.31,20.8-20.8s-9.31-20.8-20.8-20.8-20.8,9.31-20.8,20.8,9.31,20.8,20.8,20.8Z"/>
  <path class="cls-1" d="m400.84,77.92c.2.19.22.5.03.71l-8.7,9.47c-.19.2-.5.22-.71.03l-5.43-4.98c-.2-.19-.22-.5-.03-.71.19-.2.5-.22.71-.03l5.06,4.64,8.36-9.1c.19-.2.5-.22.71-.03Z"/>
  <path class="cls-11" d="m561,149.16c0-4.51,3.65-8.16,8.16-8.16h85.68c4.51,0,8.16,3.65,8.16,8.16v85.68c0,4.51-3.65,8.16-8.16,8.16h-85.68c-4.51,0-8.16-3.65-8.16-8.16v-85.68Z"/>
  <path class="cls-16" d="m595.02,166.18c-.73-5.03,3.17-9.54,8.26-9.54h17.43c5.09,0,8.99,4.51,8.26,9.54l-6.96,48.04h-20.03l-6.96-48.04Z"/>
  <path class="cls-13" d="m601.99,214.22h20.03v7.51c0,2.76-2.24,5.01-5.01,5.01h-10.01c-2.77,0-5.01-2.24-5.01-5.01v-7.51Z"/>
  <path class="cls-3" d="m612,191c3.95,0,7.16-3.21,7.16-7.16s-3.21-7.16-7.16-7.16-7.16,3.21-7.16,7.16,3.21,7.16,7.16,7.16Zm0,1c4.51,0,8.16-3.65,8.16-8.16s-3.65-8.16-8.16-8.16-8.16,3.65-8.16,8.16,3.65,8.16,8.16,8.16Z"/>
  <path class="cls-14" d="m62,293c0,2.76-2.24,5-5,5s-5-2.24-5-5,2.24-5,5-5,5,2.24,5,5Z"/>
  <path class="cls-15" d="m404,331c0,2.76-2.24,5-5,5s-5-2.24-5-5,2.24-5,5-5,5,2.24,5,5Z"/>
  <path class="cls-16" d="m248,122c0,2.76-2.24,5-5,5s-5-2.24-5-5,2.24-5,5-5,5,2.24,5,5Z"/>
  <circle class="cls-9" cx="613" cy="285.5" r="6.5"/>
  <path class="cls-6" d="m573.5,93c3.04,0,5.5-2.46,5.5-5.5s-2.46-5.5-5.5-5.5-5.5,2.46-5.5,5.5,2.46,5.5,5.5,5.5Zm0,1c3.59,0,6.5-2.91,6.5-6.5s-2.91-6.5-6.5-6.5-6.5,2.91-6.5,6.5,2.91,6.5,6.5,6.5Z"/>
  <path class="cls-4" d="m273,21c2.21,0,4-1.79,4-4s-1.79-4-4-4-4,1.79-4,4,1.79,4,4,4Zm0,1c2.76,0,5-2.24,5-5s-2.24-5-5-5-5,2.24-5,5,2.24,5,5,5Z"/>
</svg>