<?xml version="1.0" encoding="UTF-8"?>
<svg id="Lager_1" data-name="Lager 1" xmlns="http://www.w3.org/2000/svg" xmlns:xlink="http://www.w3.org/1999/xlink" viewBox="0 0 690 540">
  <defs>
    <style>
      .cls-1 {
        clip-path: url(#clippath);
      }

      .cls-2 {
        fill: none;
      }

      .cls-2, .cls-3, .cls-4, .cls-5, .cls-6, .cls-7, .cls-8, .cls-9, .cls-10, .cls-11, .cls-12, .cls-13, .cls-14, .cls-15, .cls-16, .cls-17, .cls-18 {
        stroke-width: 0px;
      }

      .cls-3, .cls-4, .cls-5, .cls-6, .cls-7, .cls-8, .cls-9 {
        fill-rule: evenodd;
      }

      .cls-3, .cls-11 {
        fill: #5d2b0e;
      }

      .cls-4, .cls-16 {
        fill: #fb5;
      }

      .cls-5, .cls-15 {
        fill: #fff;
      }

      .cls-6, .cls-14 {
        fill: #80b483;
      }

      .cls-7, .cls-17 {
        fill: #eedfc9;
      }

      .cls-8, .cls-18 {
        fill: #f2796b;
      }

      .cls-9, .cls-10 {
        fill: #f99184;
      }

      .cls-12 {
        fill: #d2775d;
      }

      .cls-13 {
        fill: #b9e6f0;
      }
    </style>
    <clipPath id="clippath">
      <rect class="cls-2" width="690" height="540"/>
    </clipPath>
  </defs>
  <g class="cls-1">
    <g>
      <rect class="cls-17" x="203" y="55" width="278.72" height="482.83" rx="41.44" ry="41.44"/>
      <path class="cls-15" d="m222.69,100.59c0-14.31,11.6-25.9,25.9-25.9h42.14c6.55,0,12.85,2.48,17.64,6.94l7.36,6.85c4.79,4.46,11.1,6.94,17.64,6.94h22.52c7.22,0,14.11-3.01,19.02-8.31l3.79-4.09c4.9-5.3,11.79-8.31,19.01-8.31h39.45c14.31,0,25.9,11.6,25.9,25.9v390.62c0,14.31-11.6,25.9-25.9,25.9h-188.57c-14.31,0-25.9-11.6-25.9-25.9V100.59Z"/>
      <path class="cls-4" d="m408.15,168.88h-130.55c-6.35,0-11.49,5.14-11.49,11.49v130.55c0,6.35,5.14,11.49,11.49,11.49h130.55c6.35,0,11.49-5.14,11.49-11.49v-130.55c0-6.35-5.14-11.49-11.49-11.49Zm-130.55-.94c-6.87,0-12.43,5.57-12.43,12.43v130.55c0,6.87,5.57,12.43,12.43,12.43h130.55c6.87,0,12.43-5.57,12.43-12.43v-130.55c0-6.87-5.57-12.43-12.43-12.43h-130.55Z"/>
      <path class="cls-11" d="m362,192l-35-.5,18,25,17-24.5Z"/>
      <path class="cls-13" d="m310.58,232.91l-10.59-5.29c-2.15-1.08-2.94-3.76-1.7-5.83l14.42-24.15c.44-.74,1.11-1.33,1.9-1.67l10.93-4.76c1.65-.72,3.57-.29,4.76,1.05l10.76,12.17c1.61,1.82,4.43,1.87,6.1.12l11.75-12.33c1.26-1.32,3.23-1.66,4.85-.85l9,4.51c.8.4,1.45,1.05,1.85,1.85l12.88,25.74c1.12,2.24.02,4.94-2.34,5.76l-12.12,4.22c-1.48.51-3.12.02-4.06-1.22-1.91-2.51-5.91-1.53-6.44,1.58l-1.35,7.9c-.1.59-.07,1.18.08,1.76l13.86,52.33c.7,2.63-1.29,5.2-4,5.2h-55.78c-2.71,0-4.68-2.55-4.01-5.17l13.43-52.27c.16-.63.17-1.29.03-1.92l-1.8-8.17c-.72-3.29-4.86-4.39-7.12-1.89l-.37.41c-1.25,1.38-3.26,1.76-4.92.93Z"/>
      <path class="cls-7" d="m268.32,363.25c0-.26.21-.47.47-.47h62.17c.26,0,.47.21.47.47s-.21.47-.47.47h-62.17c-.26,0-.47-.21-.47-.47Zm0,21.76c0-.26.21-.47.47-.47h148.17c.26,0,.47.21.47.47s-.21.47-.47.47h-148.17c-.26,0-.47-.21-.47-.47Z"/>
      <path class="cls-6" d="m408.15,439.31h-130.55c-6.35,0-11.49,5.14-11.49,11.49v21.76c0,6.35,5.14,11.49,11.49,11.49h130.55c6.35,0,11.49-5.14,11.49-11.49v-21.76c0-6.35-5.14-11.49-11.49-11.49Zm-130.55-.94c-6.87,0-12.43,5.57-12.43,12.43v21.76c0,6.87,5.57,12.43,12.43,12.43h130.55c6.87,0,12.43-5.57,12.43-12.43v-21.76c0-6.87-5.57-12.43-12.43-12.43h-130.55Z"/>
      <path class="cls-11" d="m658.94,533.46l-47.57,3.77,14.62-30.76,28.18,4.49c14.73-9.86,30.21-23.21,33.5-21.25,1.31.78-9.61,16.86-28.72,43.75Z"/>
      <path class="cls-13" d="m512.13,460.33l-101.33,30.92c-13.71,4.18-17.68,21.68-7.12,31.37,4.98,4.57,12.05,6.06,18.45,3.9l92.49-31.25,49.77,39.79,35.2-14.51-53.3-51.92c-9.02-8.79-22.12-11.97-34.17-8.29Z"/>
      <path class="cls-13" d="m389.57,511.11c-.28-18.25,15.64-32.53,33.75-30.27l220.7,27.45-16.25,29.48-207.73,2.93c-16.58.23-30.21-13.01-30.47-29.59Z"/>
      <path class="cls-3" d="m576.29,498.68c.07-.55-.32-1.05-.87-1.11l-108.47-13.17c-.55-.07-1.05.32-1.11.87-.07.55.32,1.05.87,1.11l108.47,13.17c.55.07,1.05-.32,1.11-.87Z"/>
      <path class="cls-11" d="m475.51,387.15c-9.25,19.67-34.04,19.46-34.04,19.46,0,0-1.71,45.52-23.87,49.88-31.08,6.12-76.3-51.64-18.35-93.24,18.27-13.12,26.44-40.46,50.49-41.67,40.38-2.04,32.35,51.59,25.77,65.57Z"/>
      <path class="cls-12" d="m454.61,378.03s8.87,1.92,14.32-4.81c5.45-6.73,4.21-15.08,4.21-15.08v-18.35s-10.83-7.43-16.98.86c-7.91,10.65-14.6,8.88-14.6,8.88,0,0-13.35-5.55-14.81,5.21-1.03,7.6,6.65,12.72,6.65,12.72l-1.84,16.9s1.13,8.74,11.86,9.44c11.05.71,11.62-5.46,11.62-5.46l-.43-10.3Z"/>
      <path class="cls-3" d="m430.12,354.26c-.31.45-.2,1.08.25,1.39l6.13,4.24c.45.31,1.08.2,1.39-.25.31-.45.2-1.08-.25-1.39l-6.13-4.24c-.45-.31-1.08-.2-1.39.25Z"/>
      <path class="cls-3" d="m460.5,366.22c.42.36.47.99.11,1.41l-.76-.65q.76.65.76.65h0s0,0,0,0h0s0,.02,0,.02c0,0-.02.02-.03.03-.02.02-.05.06-.09.09-.07.08-.18.17-.31.29-.26.22-.65.5-1.14.73-1.02.46-2.46.68-4.09-.2-1.54-.84-2.24-1.97-2.5-2.95-.13-.48-.15-.9-.14-1.2,0-.15.02-.28.03-.38,0-.05.01-.09.02-.12,0-.02,0-.03,0-.04v-.02s0,0,0,0h0s0,0,0,0t.95.22l-.95-.23c.13-.54.67-.87,1.2-.74.53.13.86.66.74,1.19,0,0,0,.01,0,.02,0,.03-.01.08-.01.16,0,.15,0,.36.07.61.12.46.47,1.14,1.53,1.72.98.53,1.75.39,2.3.14.29-.13.53-.3.69-.44.08-.07.14-.12.18-.16.02-.02.03-.03.04-.04m0,0h0Zm1.41-.1c-.42-.36-1.05-.31-1.41.1l1.41-.1Z"/>
      <path class="cls-3" d="m460.83,352.37c.5-.24,1.1-.04,1.34.46l3.85,7.89c.45.92-.03,2.03-1.01,2.32l-3.09.93c-.53.16-1.09-.14-1.25-.67s.14-1.09.67-1.25l2.71-.82-3.68-7.53c-.24-.5-.04-1.1.46-1.34Z"/>
      <path class="cls-11" d="m469.03,351.23c.55,1.56.2,3.1-.78,3.45-.98.35-2.23-.63-2.78-2.19-.55-1.56-.2-3.1.78-3.45.98-.35,2.23.63,2.78,2.19Z"/>
      <path class="cls-11" d="m456.46,354.59c.55,1.56.2,3.1-.78,3.45-.98.35-2.23-.63-2.78-2.19-.55-1.56-.2-3.1.78-3.45.98-.35,2.22.63,2.78,2.19Z"/>
      <path class="cls-11" d="m454.93,385.66l.06-7.65-12.85-5.57,12.79,13.22Z"/>
      <path class="cls-14" d="m455.42,389.68c13.32,13.86,1.46,97.12,1.46,97.12l-66.1,15.16s16.08-112.12,41.03-117.97c9.72-2.28,16.7-1.51,23.61,5.69Z"/>
      <path class="cls-11" d="m560.53,398.9c2.84-3.87,1.49-7.57-3.09-8.44l-16.9-3.21c-2.5-.47-5.91.91-7.46,3.02l-25.81,35.14c-1.42,1.94-.74,3.79,1.55,4.22l20.97,3.98c2.5.47,5.91-.91,7.46-3.02l23.28-31.69Z"/>
      <path class="cls-5" d="m540.31,390.67l11.71,1.99c4.2.71,5.49,4.05,2.91,7.55l-20.43,27.75c-1.22,1.66-3.92,2.74-5.86,2.34l-15.2-3.1c-1.74-.35-2.25-1.77-1.18-3.25l22.29-30.89c1.18-1.64,3.81-2.73,5.77-2.39Zm12.34,1.19c4.72.8,6.16,4.55,3.27,8.48l-20.43,27.75c-1.57,2.13-5.03,3.51-7.52,3l-15.2-3.1c-2.23-.45-2.88-2.27-1.51-4.17l22.29-30.89c1.51-2.1,4.88-3.49,7.39-3.07l11.71,1.99Z"/>
      <path class="cls-12" d="m472.39,431.92l-38.51,8.28v.05s-.1-.28-.1-.28l38.6-8.07v.03Z"/>
      <path class="cls-12" d="m435.71,476.83c2.72,9.14,12.46,14.23,21.5,11.21,4.76-1.59,8.75-2.95,8.96-3.08l57.63-37.7s24.85-7.76,25.74-12.77c.89-5.02-.75-14.88-.75-14.88l8.65-14.9c.3-.51.23-1.16-.16-1.61-.52-.59-1.43-.62-2-.07l-17.55,17.13-9.8,2.79,7.35-13.42c.52-.95-.03-2.13-1.09-2.34-.58-.11-1.18.1-1.55.57l-14.15,17.58-50.32,24.53-20.81,5.84c-9.09,2.55-14.33,12.05-11.64,21.11Z"/>
      <path class="cls-12" d="m463.11,433.27l-38.25,8.3,10.1,34.08c3.06,10.31,13.9,16.18,24.21,13.1,10.24-3.06,16.09-13.81,13.1-24.07l-9.16-31.41Z"/>
      <path class="cls-14" d="m458.49,409.45c-2.32-10.52-12.64-17.25-23.2-15.13-10.64,2.13-17.57,12.44-15.54,23.1l4.64,24.31,39.34-8.49-5.24-23.79Z"/>
      <path class="cls-3" d="m549.75,420.64c-.31-.46-.93-.57-1.39-.26l-10.12,6.88c-.46.31-.57.93-.26,1.39.31.46.93.57,1.39.26l10.12-6.88c.46-.31.57-.93.26-1.39Zm.82,6.82c-.29-.47-.91-.61-1.38-.32l-8.82,5.45c-.47.29-.61.91-.33,1.38.29.47.91.62,1.38.33l8.82-5.45c.47-.29.61-.91.33-1.38Z"/>
      <path class="cls-3" d="m418.75,414.51c-.54.13-.86.67-.73,1.21l6.3,25.61c.13.54.67.86,1.21.73.54-.13.86-.67.73-1.21l-6.3-25.61c-.13-.54-.67-.87-1.21-.73Z"/>
      <path class="cls-10" d="m96,405c0-5.52,4.48-10,10-10h123c5.52,0,10,4.48,10,10v123c0,5.52-4.48,10-10,10h-123c-5.52,0-10-4.48-10-10v-123Z"/>
      <path class="cls-18" d="m74,405c0-5.52,4.48-10,10-10h123c5.52,0,10,4.48,10,10v123c0,5.52-4.48,10-10,10h-123c-5.52,0-10-4.48-10-10v-123Z"/>
      <path class="cls-11" d="m129,395h31v38.62c0,2.11-2.12,3.56-4.08,2.8l-10.33-4c-.7-.27-1.47-.27-2.17,0l-10.33,4c-1.97.76-4.08-.69-4.08-2.8v-38.62Z"/>
      <path class="cls-9" d="m147,166H21c-6.08,0-11,4.93-11,11v126c0,6.08,4.92,11,11,11h126c6.07,0,11-4.92,11-11v-126c0-6.07-4.93-11-11-11Zm-126-1c-6.63,0-12,5.37-12,12v126c0,6.63,5.37,12,12,12h126c6.63,0,12-5.37,12-12v-126c0-6.63-5.37-12-12-12H21Z"/>
      <path class="cls-6" d="m85,269c20.85,0,37-15.62,37-34s-16.15-34-37-34-37,15.62-37,34,16.15,34,37,34Zm0,6c23.75,0,43-17.91,43-40s-19.25-40-43-40-43,17.91-43,40,19.25,40,43,40Z"/>
      <path class="cls-16" d="m40.79,229.97c1.32-4.15,5.17-6.97,9.53-6.97h68.37c4.36,0,8.21,2.82,9.53,6.97l13.65,43c2.05,6.45-2.77,13.03-9.53,13.03H36.67c-6.77,0-11.58-6.58-9.53-13.03l13.65-43Z"/>
      <path class="cls-14" d="m86.86,261.24c-2.04,2.25-5.59,2.18-7.54-.15l-31.62-37.84h73.61l-34.45,37.99Z"/>
      <path class="cls-15" d="m91,260c0,4.42-3.58,8-8,8s-8-3.58-8-8,3.58-8,8-8,8,3.58,8,8Z"/>
      <path class="cls-11" d="m182,168c0,14.91-12.09,27-27,27s-27-12.09-27-27,12.09-27,27-27,27,12.09,27,27Z"/>
      <path class="cls-5" d="m166.16,161.25c.2.19.22.5.03.71l-11.29,12.29c-.19.2-.5.22-.71.03l-7.04-6.47c-.2-.19-.22-.5-.03-.71.19-.2.5-.22.71-.03l6.68,6.13,10.95-11.93c.19-.2.5-.22.71-.03Z"/>
      <circle class="cls-16" cx="570.5" cy="122.5" r="61.5"/>
      <path class="cls-13" d="m538,104.77c0-1.53,1.24-2.77,2.77-2.77h60.45c1.53,0,2.77,1.24,2.77,2.77v36.05c0,1.53-1.24,2.77-2.77,2.77h-60.45c-1.53,0-2.77-1.24-2.77-2.77v-36.05Z"/>
      <path class="cls-11" d="m538,113.65h66v8.32h-66v-8.32Z"/>
      <path class="cls-15" d="m593.46,134.17c0,2.14-1.74,3.88-3.88,3.88s-3.88-1.74-3.88-3.88,1.74-3.88,3.88-3.88,3.88,1.74,3.88,3.88Z"/>
      <path class="cls-3" d="m594.57,137.5c1.84,0,3.33-1.49,3.33-3.33s-1.49-3.33-3.33-3.33-3.33,1.49-3.33,3.33,1.49,3.33,3.33,3.33Zm0,.55c2.14,0,3.88-1.74,3.88-3.88s-1.74-3.88-3.88-3.88-3.88,1.74-3.88,3.88,1.74,3.88,3.88,3.88Z"/>
      <path class="cls-6" d="m587,365.53c35.64,0,64.53-28.89,64.53-64.53s-28.89-64.53-64.53-64.53-64.53,28.89-64.53,64.53,28.89,64.53,64.53,64.53Zm0,1.47c36.45,0,66-29.55,66-66s-29.55-66-66-66-66,29.55-66,66,29.55,66,66,66Z"/>
      <path class="cls-18" d="m562.18,287.26c0-2.24,1.81-4.05,4.05-4.05h41.02c2.24,0,4.05,1.81,4.05,4.05v34.95c0,2.24-1.81,4.05-4.05,4.05h-41.02c-2.24,0-4.05-1.81-4.05-4.05v-34.95Z"/>
      <path class="cls-14" d="m563.96,274.6h45.08l9.91,20.97c1.55,3.27-.74,7.06-4.35,7.22l-6.84.3c-1.83.08-3.65-.22-5.35-.88l-4.75-1.85c-1.15-.45-2.43-.46-3.59-.03l-5.2,1.91c-1.7.62-3.56.62-5.25,0l-5.02-1.85c-1.27-.47-2.67-.41-3.89.16l-3.04,1.42c-1.74.81-3.64,1.24-5.57,1.24h-8.94c-2.54,0-4.26-2.59-3.26-4.93l10.06-23.68Z"/>
      <path class="cls-5" d="m577.9,278.65c.14,0,.25.13.24.27l-1.27,20.51c0,.14-.13.24-.27.24-.14,0-.25-.13-.24-.27l1.27-20.51c0-.14.13-.25.27-.24Zm17.7,0c.14,0,.26.1.26.24l.76,20.51c0,.14-.1.26-.24.26-.14,0-.26-.1-.26-.24l-.76-20.51c0-.14.1-.26.24-.26Z"/>
      <path class="cls-15" d="m579.4,311.07c0-1.4,1.13-2.53,2.53-2.53h9.12c1.4,0,2.53,1.13,2.53,2.53v15.19h-14.18v-15.19Z"/>
      <path class="cls-11" d="m528,215c0,4.42-3.58,8-8,8s-8-3.58-8-8,3.58-8,8-8,8,3.58,8,8Z"/>
      <path class="cls-8" d="m655,173c3.87,0,7-3.13,7-7s-3.13-7-7-7-7,3.13-7,7,3.13,7,7,7Zm0,1c4.42,0,8-3.58,8-8s-3.58-8-8-8-8,3.58-8,8,3.58,8,8,8Z"/>
      <path class="cls-17" d="m133,355c0,2.76-2.24,5-5,5s-5-2.24-5-5,2.24-5,5-5,5,2.24,5,5Z"/>
      <path class="cls-14" d="m85,107c0,2.76-2.24,5-5,5s-5-2.24-5-5,2.24-5,5-5,5,2.24,5,5Z"/>
      <path class="cls-4" d="m604,416c2.21,0,4-1.79,4-4s-1.79-4-4-4-4,1.79-4,4,1.79,4,4,4Zm0,1c2.76,0,5-2.24,5-5s-2.24-5-5-5-5,2.24-5,5,2.24,5,5,5Z"/>
    </g>
  </g>
</svg>