<?xml version="1.0" encoding="UTF-8"?>
<svg xmlns="http://www.w3.org/2000/svg" xmlns:xlink="http://www.w3.org/1999/xlink" version="1.1" width="2112px" height="3004px" style="shape-rendering:geometricPrecision; text-rendering:geometricPrecision; image-rendering:optimizeQuality; fill-rule:evenodd; clip-rule:evenodd">
  <g>
    <path style="opacity:0.994" fill="#000000" d="M 609.5,-0.5 C 612.167,-0.5 614.833,-0.5 617.5,-0.5C 664.215,105.249 684.382,215.915 678,331.5C 671.364,417.425 643.364,495.425 594,565.5C 573.728,593.705 552.728,621.372 531,648.5C 518.829,664.83 508.162,682.163 499,700.5C 491.141,717.461 486.974,735.294 486.5,754C 495.785,912.994 517.952,1070.16 553,1225.5C 556.089,1168.23 565.422,1111.89 581,1056.5C 609.092,964.106 660.259,887.273 734.5,826C 794.967,776.583 862.3,738.75 936.5,712.5C 950.393,813.266 943.56,912.6 916,1010.5C 887.269,1107.83 835.103,1189.99 759.5,1257C 729.79,1281.71 699.79,1306.05 669.5,1330C 661,1337.83 652.5,1345.67 644,1353.5C 628.245,1369.34 616.245,1387.67 608,1408.5C 606.853,1411.76 606.02,1415.09 605.5,1418.5C 662.253,1601.66 739.753,1775.32 838,1939.5C 834.348,1920.57 830.681,1901.57 827,1882.5C 802.115,1747.9 828.449,1624.57 906,1512.5C 951.021,1448.65 1005.52,1394.31 1069.5,1349.5C 1125.03,1469.01 1145.86,1594.35 1132,1725.5C 1122.45,1799.83 1099.11,1869.49 1062,1934.5C 1042.06,1968.1 1021.73,2001.43 1001,2034.5C 984.901,2060.13 973.901,2087.79 968,2117.5C 967.333,2121.83 967.333,2126.17 968,2130.5C 1088.77,2287.94 1227.11,2428.28 1383,2551.5C 1376.16,2538.85 1368.49,2526.52 1360,2514.5C 1332.4,2468.97 1311.07,2420.64 1296,2369.5C 1278.07,2300.72 1275.74,2231.38 1289,2161.5C 1307.09,2072.02 1342.09,1990.02 1394,1915.5C 1481.44,2001.65 1543.44,2103.65 1580,2221.5C 1604.93,2306.32 1609.93,2392.32 1595,2479.5C 1589.18,2512.6 1582.85,2545.6 1576,2578.5C 1570.09,2605.92 1568.09,2633.59 1570,2661.5C 1571.06,2672.12 1573.39,2682.46 1577,2692.5C 1588.57,2701.04 1600.41,2709.2 1612.5,2717C 1769.04,2816.28 1933.04,2902.62 2104.5,2976C 2107.77,2977.77 2110.11,2980.27 2111.5,2983.5C 2111.5,2986.5 2111.5,2989.5 2111.5,2992.5C 2110.06,2997.06 2107.39,3000.72 2103.5,3003.5C 2099.83,3003.5 2096.17,3003.5 2092.5,3003.5C 2004.43,2970.97 1917.77,2934.8 1832.5,2895C 1799.83,2878.67 1767.17,2862.33 1734.5,2846C 1700.57,2827.21 1666.57,2808.71 1632.5,2790.5C 1613.74,2792.52 1595.74,2797.36 1578.5,2805C 1566.68,2810.74 1555.01,2816.74 1543.5,2823C 1502.8,2849.02 1460.8,2873.02 1417.5,2895C 1332.56,2932.29 1244.56,2941.62 1153.5,2923C 1088.77,2909.98 1027.44,2887.65 969.5,2856C 867.642,2799.83 780.642,2725.83 708.5,2634C 708.905,2633.05 709.572,2632.39 710.5,2632C 862.292,2585.69 1016.96,2572.02 1174.5,2591C 1221.5,2598.33 1267.83,2608.67 1313.5,2622C 1354.2,2634.24 1394.53,2647.24 1434.5,2661C 1298.32,2564.2 1174.32,2452.86 1062.5,2327C 1042.85,2323.76 1023.18,2323.76 1003.5,2327C 993.091,2328.62 982.758,2330.62 972.5,2333C 944.199,2340.16 915.866,2347.16 887.5,2354C 789.553,2377.55 695.219,2367.55 604.5,2324C 535.491,2290.01 474.657,2244.84 422,2188.5C 348.742,2109.4 292.075,2019.4 252,1918.5C 249.851,1912.56 248.017,1906.56 246.5,1900.5C 397.741,1902.18 542.408,1933.68 680.5,1995C 731.964,2019.88 780.964,2048.55 827.5,2081C 857.438,2102.06 886.772,2123.23 915.5,2144.5C 824.107,2017.63 745.774,1882.47 680.5,1739C 661.275,1726.48 640.275,1718.48 617.5,1715C 606.55,1713.26 595.55,1711.92 584.5,1711C 546.398,1709.24 508.398,1706.24 470.5,1702C 383.637,1689.4 308.637,1653.06 245.5,1593C 175.97,1523.84 124.136,1443 90,1350.5C 63.0855,1279.51 46.5855,1206.18 40.5,1130.5C 183.814,1168.31 311.147,1235.14 422.5,1331C 463.265,1369.42 500.765,1410.59 535,1454.5C 558.774,1485.61 581.774,1517.27 604,1549.5C 604.654,1550.7 605.154,1550.7 605.5,1549.5C 557.763,1413.89 521.596,1275.22 497,1133.5C 474.9,1108.86 448.066,1091.36 416.5,1081C 376.957,1068.6 337.624,1055.6 298.5,1042C 221.003,1011.84 158.503,962.675 111,894.5C 60.3646,819.177 27.3646,736.511 12,646.5C 5.80689,611.253 1.64023,575.92 -0.5,540.5C -0.5,513.167 -0.5,485.833 -0.5,458.5C 0.904861,437.902 3.07153,417.236 6,396.5C 134.727,461.2 243.061,550.867 331,665.5C 368.271,718.677 399.938,775.344 426,835.5C 441.645,871.433 456.311,907.767 470,944.5C 464.19,882.634 459.857,820.634 457,758.5C 436.418,726.665 420.085,692.665 408,656.5C 377.646,569.376 363.646,479.71 366,387.5C 370.074,296.606 398.407,214.273 451,140.5C 488.092,88.0716 533.592,44.5716 587.5,10C 594.803,6.17957 602.136,2.67957 609.5,-0.5 Z"></path>
  </g>
</svg>
