<?xml version="1.0" encoding="UTF-8"?>
<svg id="Lager_2" data-name="Lager 2" xmlns="http://www.w3.org/2000/svg" viewBox="0 0 40.33 63.52">
  <defs>
    <style>
      .cls-1 {
        fill: #1d1d1b;
        stroke-width: 0px;
      }
    </style>
  </defs>
  <g id="Lager_1-2" data-name="Lager 1">
    <path class="cls-1" d="m36.07.71c-12.77,11.14-18.68,27.72-21.99,43.88-1.05,5.1-1.88,10.24-2.72,15.38-.22,1.33.35,2.69,1.75,3.08,1.19.33,2.86-.41,3.08-1.75,2.66-16.36,5.44-33.38,14.9-47.39,2.42-3.58,5.28-6.82,8.53-9.66,1.02-.89.91-2.63,0-3.54-1.01-1.01-2.52-.89-3.54,0h0Z"/>
    <path class="cls-1" d="m1.15,54.66c3.77,2.45,7.32,5.16,10.68,8.15,1.1.98,2.42.87,3.54,0,3.7-2.89,7.91-5.16,12.32-6.73,1.27-.45,2.12-1.7,1.75-3.08-.34-1.23-1.8-2.2-3.08-1.75-5.29,1.88-10.11,4.57-14.53,8.02h3.54c-3.66-3.27-7.57-6.26-11.69-8.94-2.71-1.76-5.21,2.57-2.52,4.32h0Z"/>
  </g>
</svg>