<?xml version="1.0" encoding="UTF-8"?>
<svg id="Lager_2" data-name="Lager 2" xmlns="http://www.w3.org/2000/svg" viewBox="0 0 60.52 154.44">
  <defs>
    <style>
      .cls-1 {
        stroke-width: 0px;
      }
    </style>
  </defs>
  <g id="Lager_1-2" data-name="Lager 1">
    <path class="cls-1" d="m57.4.07C40.99,3.83,24.16,10.64,14.72,25.4c-4.14,6.48-7.06,15.04-5.6,22.79,1.85,9.85,14.83,8.59,21.29,4.42,3.81-2.45,7-6.27,5.02-10.98-1.52-3.63-5.1-6.14-8.84-7.09-7.98-2.04-15.51,2.04-20.13,8.43C1.32,50.07-.5,59.64.12,68.25c.31,4.38,1.29,8.73,4.08,12.22s6.63,5.24,10.27,7.24c4.29,2.36,8.58,4.72,12.86,7.08,2.18,1.2,4.36,2.4,6.54,3.6,1.72.95,3.63,1.81,5.06,3.19,2.56,2.48,2.06,6.81,1.21,9.95-.92,3.39-2.76,6.48-5.29,8.92-1.27,1.23-2.69,2.22-4.25,3.05-2.84,1.52-.32,5.83,2.52,4.32,6.18-3.3,10.8-9.5,12.16-16.39.72-3.65.85-7.89-1.1-11.2-2.06-3.5-6.13-5.24-9.54-7.12-4-2.2-7.99-4.4-11.99-6.6-3.7-2.04-7.54-3.93-11.1-6.22-3.1-1.99-5.03-4.58-5.88-8.18-.92-3.87-.87-8.1-.36-12.03.88-6.79,3.65-14.6,9.54-18.65,4.47-3.08,12.68-3.89,15.76,1.68.89,1.61.25,2.69-1,3.85s-2.66,2.01-4.18,2.64c-1.65.68-3.45,1.07-5.23,1.12-1.54.04-3.49,0-4.79-.94-2.38-1.73-1.72-6.4-1.37-8.87.47-3.34,1.55-6.61,3.07-9.61,7.04-13.89,21.52-21.06,35.93-24.99,1.88-.51,3.78-.98,5.68-1.41,3.14-.72,1.81-5.54-1.33-4.82h0Z"/>
    <path class="cls-1" d="m23.62,122.85c1.59.83,2.8,1.89,4.03,3.18,1.46,1.53,3.02,2.64,5,3.42,3.79,1.48,7.97,2.17,12.01,2.57,1.35.13,2.5-1.25,2.5-2.5,0-1.46-1.15-2.37-2.5-2.5-3.54-.35-7.38-1.01-10.68-2.39-1.4-.59-2.33-1.66-3.37-2.73-1.3-1.35-2.81-2.5-4.47-3.36-1.2-.62-2.72-.31-3.42.9-.66,1.12-.31,2.8.9,3.42h0Z"/>
    <path class="cls-1" d="m22.16,122.64c.34,2.19,2.16,3.67,2.96,5.66s.84,4.08.45,6.14c-.88,4.65-2.7,8.94-1.86,13.76.23,1.33,1.86,2.08,3.08,1.75,1.41-.39,1.98-1.74,1.75-3.08-.36-2.05.13-4.14.63-6.12.58-2.29,1.24-4.55,1.52-6.9s.07-4.69-.74-6.88c-.42-1.13-.94-2.21-1.62-3.2-.55-.81-1.19-1.47-1.35-2.46-.2-1.34-1.88-2.07-3.08-1.75-1.43.39-1.95,1.74-1.75,3.08h0Z"/>
    <path class="cls-1" d="m43.34,128.46c-3.02,3.82-7.56,6.07-10.92,9.55s-6.07,7.81-7.87,12.43h4.82c-.06-.35.12-.7.25-1.01.47-1.13-.42-2.53-1.45-2.95-1.14-.46-2.48-.07-3.12,1.02-.3.51-.59,1.02-.89,1.52l4.66,1.26c.16-1.61,1.05-3.13,1.75-4.55.77-1.55,1.56-3.1,2.47-4.58,1.69-2.72,3.99-5.08,7-6.34,1.99-.83,2.49-3.28.6-4.57-.78-.53-1.74-.72-2.68-.66-.6.04-1.2.17-1.78.04-1.31-.29-2.43-1.38-3.39-2.24-1.9-1.71-4.68-.03-4.18,2.43.47,2.29.23,4.57-.54,6.77-.44,1.28.5,2.73,1.75,3.08,1.38.38,2.63-.47,3.08-1.75,1.06-3.05,1.18-6.28.54-9.43l-4.18,2.43c1.37,1.23,2.79,2.42,4.5,3.14.89.37,1.79.59,2.75.63.38.02.75-.04,1.14-.07.21-.03.42-.04.63-.05-.05-.03-.1-.03-.16,0l.6-4.57c-4.16,1.74-7.36,4.54-9.79,8.32-1.07,1.67-1.96,3.45-2.84,5.22-1.08,2.19-2.02,4.3-2.27,6.75s3.48,3.27,4.66,1.26c.3-.51.59-1.02.89-1.52l-4.57-1.93c-.5,1.19-.48,2.42-.25,3.67.2,1.07,1.38,1.84,2.41,1.84,1.18,0,2.01-.8,2.41-1.84,1.57-4.02,4.03-7.69,7.08-10.73,3.27-3.25,7.55-5.41,10.42-9.05.84-1.06,1.03-2.5,0-3.54-.87-.87-2.69-1.06-3.54,0h0Z"/>
    <path class="cls-1" d="m23.73,144.51c.04.14.07.26.09.4l-.09-.66c.03.28.02.55-.02.82l.09-.66c-.12.79-.32,1.55-.4,2.34-.07.63-.01,1.26.06,1.89.18,1.54.22,3.19,1.02,4.56.66,1.13,2.28,1.63,3.42.9s1.6-2.21.9-3.42c-.07-.12-.13-.24-.19-.36l.25.6c-.15-.39-.23-.79-.28-1.2l.09.66c-.16-1.23-.42-2.52-.26-3.76l-.09.66c.22-1.38.63-2.7.22-4.1-.37-1.25-1.78-2.17-3.08-1.75s-2.14,1.73-1.75,3.08h0Z"/>
  </g>
</svg>