<?xml version="1.0" encoding="UTF-8"?>
<svg id="Layer_1" data-name="Layer 1" xmlns="http://www.w3.org/2000/svg" viewBox="0 0 656.62 466.64">
  <defs>
    <style>
      .cls-1 {
        fill: none;
        stroke: #2e1407;
        stroke-linecap: round;
        stroke-linejoin: round;
        stroke-width: 2.57px;
      }

      .cls-2 {
        fill-rule: evenodd;
      }

      .cls-2, .cls-3, .cls-4, .cls-5, .cls-6, .cls-7 {
        stroke-width: 0px;
      }

      .cls-2, .cls-4 {
        fill: #5d2b0e;
      }

      .cls-3 {
        fill: #f99184;
      }

      .cls-5 {
        fill: #b9e6f0;
      }

      .cls-6 {
        fill: #fff;
      }

      .cls-7 {
        fill: #f2796b;
      }
    </style>
  </defs>
  <path class="cls-7" d="m103.8,435.58c0-4.09,2.71-7.4,6.06-7.4h540.7c3.34,0,6.06,3.31,6.06,7.4v23.66c0,4.08-2.72,7.4-6.06,7.4H109.86c-3.35,0-6.06-3.32-6.06-7.4v-23.66Z"/>
  <path class="cls-4" d="m200.77.76c80.44,9.57,84.47,141,28.92,162-35.6,13.5-56.7,11.29-56.7,11.29l-67.8,72s-61.29-15.33-61.29-72,55.35-81.41,64-90S120.32-8.82,200.77.76Z"/>
  <path class="cls-3" d="m277.75,374.43l-14.91-80.36,30.65-66.27,28.17,47.22,46.39-107.7,13.17-22.49c4.16-7.1,11.77-11.47,20-11.47h75.55c.92,0,1.65.76,1.64,1.68,0,.65-.4,1.24-.99,1.5l-33.17,14.21-2.93,17.6c-1.28,7.64-6.29,14.15-13.36,17.33l-14.38,6.49-53,158c-9.27,27.55-39.11,42.37-66.66,33.1-5.87-1.97-11.34-4.97-16.17-8.84Z"/>
  <path class="cls-5" d="m258.7,168.15l-33.14,49.71,27.34,82.84,69.59-28.17-63.79-104.38Z"/>
  <path class="cls-1" d="m262.31,230.57l17.31,66.95"/>
  <path class="cls-5" d="m213.14,149.09l-50.54-4.14s-34-1.45-67.93,24c-38.11,28.61-67.93,127.6-67.93,127.6l72.9,2.49-35.62,136.69,235.27-7.49s-13.25-230.31-43.07-262.62c-11.58-12.5-43.08-16.53-43.08-16.53Z"/>
  <path class="cls-6" d="m163.85,428.75V145.24l53.05,4.35,32.18,281.78-85.23-2.62Z"/>
  <path class="cls-2" d="m261.73,182.67c.93-.21,1.86.37,2.09,1.3l23.48,100c.22.94-.36,1.87-1.3,2.1s-1.87-.36-2.1-1.3l-23.48-100c-.22-.94.36-1.88,1.3-2.1Z"/>
  <path class="cls-4" d="m286.43,414.24c0-4.81,3.89-8.71,8.7-8.72h249.28c4.81,0,8.71,3.9,8.71,8.71h0v7.01c0,4.81-3.9,8.71-8.71,8.71h-249.27c-4.81,0-8.71-3.9-8.71-8.71v-7Z"/>
  <path class="cls-4" d="m427.27,292.69c1.25-3.44,4.52-5.73,8.18-5.72h178.13c4.81,0,8.71,3.9,8.71,8.71,0,1.08-.2,2.16-.6,3.17l-51.14,131.05h-193.48l50.2-137.21Z"/>
  <path class="cls-3" d="m2.72,389.34l24-92.78,73.73,2.48-20.69,88.64,135,1.66,32.92-5.49c7.69-1.28,15.58-.18,22.63,3.14l37.48,17.7c.82.4,1.17,1.39.77,2.22-.32.66-1.04,1.03-1.77.91l-47.26-8.58,50.29,23.21c.83.39,1.19,1.38.8,2.21-.18.39-.5.69-.9.84l-6.86,2.64c-.17.06-.34.1-.52.11l-76.77,3.3-170.34,22.18c-35.97,4.68-64.33-30.09-52.51-64.39Z"/>
  <path class="cls-2" d="m252.61,412.66c.24-.93,1.19-1.49,2.12-1.25,0,0,0,0,0,0l50.44,13c.93.24,1.49,1.19,1.25,2.12s-1.19,1.49-2.12,1.25l-50.44-13c-.93-.24-1.49-1.19-1.25-2.12,0,0,0,0,0,0Z"/>
  <path class="cls-3" d="m213.96,127.15s19.32,3.77,30.85-11.06,2.68-36.69,2.68-36.69l-14.45-44.75s-9.68,18.57-34.4,14-18.57,28.28-18.57,28.28c0,0-25.73-13.33-28.42,10.08-1.89,16.58,17.16,22.23,17.16,22.23l-5.38,34.91s2.38,17.19,25.68,18.22c24,1.06,26.22-12.88,26.22-12.88l-1.37-22.34Z"/>
  <path class="cls-2" d="m163.28,85.9c-.59.75-.46,1.84.3,2.43,0,0,0,0,.01.01l11.31,8.7c.76.59,1.85.44,2.44-.32.59-.76.44-1.85-.32-2.44l-11.31-8.69c-.75-.59-1.83-.46-2.42.29,0,0-.01.01-.01.02Z"/>
  <path class="cls-2" d="m223.36,99.55c.69.67.72,1.76.06,2.46l-1.26-1.2,1.26,1.2h-.05l-.18.17c-.19.18-.4.35-.61.5-.68.52-1.43.94-2.22,1.25-2.52,1.01-5.37.73-7.64-.76-2.22-1.22-3.82-3.31-4.42-5.77-.16-.74-.2-1.5-.14-2.26.02-.23.05-.47.09-.7,0-.09,0-.16.05-.22s0-.05,0-.07h0l1.67.48-1.67-.48c.28-.93,1.25-1.45,2.18-1.18s1.45,1.25,1.18,2.18h0c-.02.11-.04.21-.05.32-.03.41,0,.83.08,1.23.4,1.53,1.43,2.82,2.84,3.54,1.33.92,3.04,1.11,4.54.5.5-.2.97-.46,1.4-.79.17-.13.29-.24.37-.31l.08-.07h0c.67-.68,1.77-.69,2.45-.02Z"/>
  <path class="cls-2" d="m225.5,71.45c.88-.38,1.91.03,2.29.91,0,0,0,0,0,0l6.6,15.45c.65,1.52-.05,3.29-1.57,3.94-.15.07-.31.12-.48.16l-6,1.48c-.93.23-1.88-.34-2.1-1.28-.23-.93.34-1.88,1.27-2.1l5.45-1.34-6.38-15c-.34-.87.06-1.85.92-2.23Z"/>
  <path class="cls-4" d="m214.96,143.69l-.2-16.59-28.12-11.52,28.32,28.11Z"/>
  <path class="cls-4" d="m238.85,68.24c.87,2.94.08,5.77-1.78,6.33s-4.07-1.39-5-4.33-.08-5.78,1.78-6.33,4.11,1.41,5,4.33Z"/>
  <path class="cls-4" d="m212.34,78.24c.87,2.94.08,5.77-1.78,6.33s-4.07-1.39-4.95-4.33-.08-5.78,1.78-6.33,4.07,1.33,4.95,4.33Z"/>
</svg>