<?xml version="1.0" encoding="UTF-8"?>
<svg id="Lager_2" data-name="Lager 2" xmlns="http://www.w3.org/2000/svg" viewBox="0 0 352.4 52.07">
  <defs>
    <style>
      .cls-1 {
        fill: #ffce6c;
        opacity: .5;
      }

      .cls-1, .cls-2 {
        stroke-width: 0px;
      }

      .cls-2 {
        fill: #eab242;
      }
    </style>
  </defs>
  <g id="Lager_1-2" data-name="Lager 1">
    <rect class="cls-1" x="2.55" y="2.55" width="347.29" height="47.06"/>
    <circle class="cls-2" cx="2.55" cy="2.55" r="2.55"/>
    <circle class="cls-2" cx="349.85" cy="2.55" r="2.55"/>
    <circle class="cls-2" cx="349.85" cy="49.51" r="2.55"/>
    <circle class="cls-2" cx="2.55" cy="49.1" r="2.55"/>
    <rect class="cls-2" x="11.05" y="2.04" width="8.84" height="1.03"/>
    <rect class="cls-2" x="24.75" y="2.04" width="8.84" height="1.03"/>
    <rect class="cls-2" x="38.46" y="2.04" width="8.84" height="1.03"/>
    <rect class="cls-2" x="52.16" y="2.04" width="8.84" height="1.03"/>
    <rect class="cls-2" x="65.86" y="2.04" width="8.84" height="1.03"/>
    <rect class="cls-2" x="79.57" y="2.04" width="8.84" height="1.03"/>
    <rect class="cls-2" x="93.27" y="2.04" width="8.84" height="1.03"/>
    <rect class="cls-2" x="106.98" y="2.04" width="8.84" height="1.03"/>
    <rect class="cls-2" x="120.68" y="2.04" width="8.84" height="1.03"/>
    <rect class="cls-2" x="134.39" y="2.04" width="8.84" height="1.03"/>
    <rect class="cls-2" x="148.09" y="2.04" width="8.84" height="1.03"/>
    <rect class="cls-2" x="161.8" y="2.04" width="8.84" height="1.03"/>
    <rect class="cls-2" x="175.5" y="2.04" width="8.84" height="1.03"/>
    <rect class="cls-2" x="189.21" y="2.04" width="8.84" height="1.03"/>
    <rect class="cls-2" x="202.91" y="2.04" width="8.84" height="1.03"/>
    <rect class="cls-2" x="216.62" y="2.04" width="8.84" height="1.03"/>
    <rect class="cls-2" x="230.32" y="2.04" width="8.84" height="1.03"/>
    <rect class="cls-2" x="244.03" y="2.04" width="8.84" height="1.03"/>
    <rect class="cls-2" x="257.73" y="2.04" width="8.84" height="1.03"/>
    <rect class="cls-2" x="271.43" y="2.04" width="8.84" height="1.03"/>
    <rect class="cls-2" x="285.14" y="2.04" width="8.84" height="1.03"/>
    <rect class="cls-2" x="298.84" y="2.04" width="8.84" height="1.03"/>
    <rect class="cls-2" x="312.55" y="2.04" width="8.84" height="1.03"/>
    <rect class="cls-2" x="326.25" y="2.04" width="8.84" height="1.03"/>
    <rect class="cls-2" x="339.96" y="2.04" width="8.84" height="1.03"/>
    <rect class="cls-2" x="-.56" y="10.92" width="6.23" height="1.46" transform="translate(-9.1 14.2) rotate(-90)"/>
    <rect class="cls-2" x="-.56" y="20.57" width="6.23" height="1.46" transform="translate(-18.75 23.86) rotate(-90)"/>
    <rect class="cls-2" x="-.56" y="30.23" width="6.23" height="1.46" transform="translate(-28.4 33.51) rotate(-90)"/>
    <rect class="cls-2" x="346.73" y="10.92" width="6.23" height="1.46" transform="translate(338.2 361.5) rotate(-90)"/>
    <rect class="cls-2" x="346.73" y="20.57" width="6.23" height="1.46" transform="translate(328.54 371.15) rotate(-90)"/>
    <rect class="cls-2" x="346.73" y="30.23" width="6.23" height="1.46" transform="translate(318.89 380.81) rotate(-90)"/>
    <rect class="cls-2" x="11.05" y="49.1" width="8.84" height="1.03"/>
    <rect class="cls-2" x="24.75" y="49.1" width="8.84" height="1.03"/>
    <rect class="cls-2" x="38.46" y="49.1" width="8.84" height="1.03"/>
    <rect class="cls-2" x="52.16" y="49.1" width="8.84" height="1.03"/>
    <rect class="cls-2" x="65.86" y="49.1" width="8.84" height="1.03"/>
    <rect class="cls-2" x="79.57" y="49.1" width="8.84" height="1.03"/>
    <rect class="cls-2" x="93.27" y="49.1" width="8.84" height="1.03"/>
    <rect class="cls-2" x="106.98" y="49.1" width="8.84" height="1.03"/>
    <rect class="cls-2" x="120.68" y="49.1" width="8.84" height="1.03"/>
    <rect class="cls-2" x="134.39" y="49.1" width="8.84" height="1.03"/>
    <rect class="cls-2" x="148.09" y="49.1" width="8.84" height="1.03"/>
    <rect class="cls-2" x="161.8" y="49.1" width="8.84" height="1.03"/>
    <rect class="cls-2" x="175.5" y="49.1" width="8.84" height="1.03"/>
    <rect class="cls-2" x="189.21" y="49.1" width="8.84" height="1.03"/>
    <rect class="cls-2" x="202.91" y="49.1" width="8.84" height="1.03"/>
    <rect class="cls-2" x="216.62" y="49.1" width="8.84" height="1.03"/>
    <rect class="cls-2" x="230.32" y="49.1" width="8.84" height="1.03"/>
    <rect class="cls-2" x="244.03" y="49.1" width="8.84" height="1.03"/>
    <rect class="cls-2" x="257.73" y="49.1" width="8.84" height="1.03"/>
    <rect class="cls-2" x="271.43" y="49.1" width="8.84" height="1.03"/>
    <rect class="cls-2" x="285.14" y="49.1" width="8.84" height="1.03"/>
    <rect class="cls-2" x="298.84" y="49.1" width="8.84" height="1.03"/>
    <rect class="cls-2" x="312.55" y="49.1" width="8.84" height="1.03"/>
    <rect class="cls-2" x="326.25" y="49.1" width="8.84" height="1.03"/>
    <rect class="cls-2" x="339.96" y="49.1" width="8.84" height="1.03"/>
    <rect class="cls-2" x="-.56" y="39.88" width="6.23" height="1.46" transform="translate(-38.06 43.17) rotate(-90)"/>
    <rect class="cls-2" x="346.73" y="39.88" width="6.23" height="1.46" transform="translate(309.24 390.46) rotate(-90)"/>
  </g>
</svg>