<?xml version="1.0" encoding="UTF-8"?>
<svg id="Lager_2" data-name="Lager 2" xmlns="http://www.w3.org/2000/svg" viewBox="0 0 207.44 50.22">
  <defs>
    <style>
      .cls-1 {
        fill: #ffce6c;
        opacity: .5;
      }

      .cls-1, .cls-2 {
        stroke-width: 0px;
      }

      .cls-2 {
        fill: #eab242;
      }
    </style>
  </defs>
  <g id="Lager_1-2" data-name="Lager 1">
    <rect class="cls-1" x="2.12" y="2.46" width="203.19" height="45.38"/>
    <ellipse class="cls-2" cx="2.12" cy="2.46" rx="2.12" ry="2.46"/>
    <ellipse class="cls-2" cx="205.31" cy="2.46" rx="2.12" ry="2.46"/>
    <ellipse class="cls-2" cx="205.31" cy="47.76" rx="2.12" ry="2.46"/>
    <ellipse class="cls-2" cx="2.12" cy="47.35" rx="2.12" ry="2.46"/>
    <rect class="cls-2" x="7.09" y="1.97" width="5.17" height=".99"/>
    <rect class="cls-2" x="15.11" y="1.97" width="5.17" height=".99"/>
    <rect class="cls-2" x="23.13" y="1.97" width="5.17" height=".99"/>
    <rect class="cls-2" x="31.14" y="1.97" width="5.17" height=".99"/>
    <rect class="cls-2" x="39.16" y="1.97" width="5.17" height=".99"/>
    <rect class="cls-2" x="47.18" y="1.97" width="5.17" height=".99"/>
    <rect class="cls-2" x="55.2" y="1.97" width="5.17" height=".99"/>
    <rect class="cls-2" x="63.22" y="1.97" width="5.17" height=".99"/>
    <rect class="cls-2" x="71.24" y="1.97" width="5.17" height=".99"/>
    <rect class="cls-2" x="79.25" y="1.97" width="5.17" height=".99"/>
    <rect class="cls-2" x="87.27" y="1.97" width="5.17" height=".99"/>
    <rect class="cls-2" x="95.29" y="1.97" width="5.17" height=".99"/>
    <rect class="cls-2" x="103.31" y="1.97" width="5.17" height=".99"/>
    <rect class="cls-2" x="111.33" y="1.97" width="5.17" height=".99"/>
    <rect class="cls-2" x="119.35" y="1.97" width="5.17" height=".99"/>
    <rect class="cls-2" x="127.36" y="1.97" width="5.17" height=".99"/>
    <rect class="cls-2" x="135.38" y="1.97" width="5.17" height=".99"/>
    <rect class="cls-2" x="143.4" y="1.97" width="5.17" height=".99"/>
    <rect class="cls-2" x="151.42" y="1.97" width="5.17" height=".99"/>
    <rect class="cls-2" x="159.44" y="1.97" width="5.17" height=".99"/>
    <rect class="cls-2" x="167.46" y="1.97" width="5.17" height=".99"/>
    <rect class="cls-2" x="175.47" y="1.97" width="5.17" height=".99"/>
    <rect class="cls-2" x="183.49" y="1.97" width="5.17" height=".99"/>
    <rect class="cls-2" x="191.51" y="1.97" width="5.17" height=".99"/>
    <rect class="cls-2" x="199.53" y="1.97" width="5.17" height=".99"/>
    <rect class="cls-2" x="-.88" y="10.81" width="6" height=".85" transform="translate(-9.11 13.36) rotate(-90)"/>
    <rect class="cls-2" x="-.88" y="20.12" width="6" height=".85" transform="translate(-18.43 22.67) rotate(-90)"/>
    <rect class="cls-2" x="-.88" y="29.43" width="6" height=".85" transform="translate(-27.74 31.98) rotate(-90)"/>
    <rect class="cls-2" x="202.31" y="10.81" width="6" height=".85" transform="translate(194.08 216.55) rotate(-90)"/>
    <rect class="cls-2" x="202.31" y="20.12" width="6" height=".85" transform="translate(184.77 225.86) rotate(-90)"/>
    <rect class="cls-2" x="202.31" y="29.43" width="6" height=".85" transform="translate(175.46 235.17) rotate(-90)"/>
    <rect class="cls-2" x="7.09" y="47.35" width="5.17" height=".99"/>
    <rect class="cls-2" x="15.11" y="47.35" width="5.17" height=".99"/>
    <rect class="cls-2" x="23.13" y="47.35" width="5.17" height=".99"/>
    <rect class="cls-2" x="31.14" y="47.35" width="5.17" height=".99"/>
    <rect class="cls-2" x="39.16" y="47.35" width="5.17" height=".99"/>
    <rect class="cls-2" x="47.18" y="47.35" width="5.17" height=".99"/>
    <rect class="cls-2" x="55.2" y="47.35" width="5.17" height=".99"/>
    <rect class="cls-2" x="63.22" y="47.35" width="5.17" height=".99"/>
    <rect class="cls-2" x="71.24" y="47.35" width="5.17" height=".99"/>
    <rect class="cls-2" x="79.25" y="47.35" width="5.17" height=".99"/>
    <rect class="cls-2" x="87.27" y="47.35" width="5.17" height=".99"/>
    <rect class="cls-2" x="95.29" y="47.35" width="5.17" height=".99"/>
    <rect class="cls-2" x="103.31" y="47.35" width="5.17" height=".99"/>
    <rect class="cls-2" x="111.33" y="47.35" width="5.17" height=".99"/>
    <rect class="cls-2" x="119.35" y="47.35" width="5.17" height=".99"/>
    <rect class="cls-2" x="127.36" y="47.35" width="5.17" height=".99"/>
    <rect class="cls-2" x="135.38" y="47.35" width="5.17" height=".99"/>
    <rect class="cls-2" x="143.4" y="47.35" width="5.17" height=".99"/>
    <rect class="cls-2" x="151.42" y="47.35" width="5.17" height=".99"/>
    <rect class="cls-2" x="159.44" y="47.35" width="5.17" height=".99"/>
    <rect class="cls-2" x="167.46" y="47.35" width="5.17" height=".99"/>
    <rect class="cls-2" x="175.47" y="47.35" width="5.17" height=".99"/>
    <rect class="cls-2" x="183.49" y="47.35" width="5.17" height=".99"/>
    <rect class="cls-2" x="191.51" y="47.35" width="5.17" height=".99"/>
    <rect class="cls-2" x="199.53" y="47.35" width="5.17" height=".99"/>
    <rect class="cls-2" x="-.88" y="38.74" width="6" height=".85" transform="translate(-37.05 41.29) rotate(-90)"/>
    <rect class="cls-2" x="202.31" y="38.74" width="6" height=".85" transform="translate(166.14 244.48) rotate(-90)"/>
  </g>
</svg>