<?xml version="1.0" encoding="UTF-8"?>
<svg id="Lager_2" data-name="Lager 2" xmlns="http://www.w3.org/2000/svg" viewBox="0 0 575.36 428.75">
  <defs>
    <style>
      .cls-1, .cls-2, .cls-3, .cls-4 {
        stroke: #47250e;
        stroke-miterlimit: 10;
      }

      .cls-1, .cls-5 {
        fill: #47250e;
      }

      .cls-2, .cls-3 {
        stroke-width: 20px;
      }

      .cls-2, .cls-3, .cls-4 {
        fill: none;
      }

      .cls-3, .cls-4 {
        stroke-linecap: round;
      }

      .cls-4 {
        stroke-width: 19px;
      }

      .cls-5, .cls-6, .cls-7 {
        stroke-width: 0px;
      }

      .cls-6 {
        fill: #1d1d1b;
      }

      .cls-7 {
        fill: #fff;
      }
    </style>
  </defs>
  <g id="Lager_2-2" data-name="Lager 2">
    <rect class="cls-1" x="224.39" y="221.71" width="7.14" height="26.61"/>
    <rect class="cls-1" x="295.75" y="150.99" width="19.91" height="152.15" transform="translate(78.64 532.77) rotate(-90)"/>
    <rect class="cls-1" x="328.07" y="101.23" width="38.11" height="51.63" transform="translate(220.08 474.17) rotate(-90)"/>
    <rect class="cls-1" x="338.11" y="147.5" width="19.04" height="56.02" transform="translate(172.12 523.14) rotate(-90)"/>
    <rect class="cls-1" x="244.79" y="124.4" width="17.85" height="93.44"/>
    <rect class="cls-1" x="275.69" y="124.64" width="17.85" height="93.44"/>
    <rect class="cls-1" x="306.65" y="24.65" width="17.85" height="193.18"/>
    <rect class="cls-1" x="255.35" y="64.82" width="38.11" height="124.45" rx="13.87" ry="13.87" transform="translate(147.36 401.45) rotate(-90)"/>
    <g>
      <line class="cls-6" x1="315.09" y1="26.74" x2="303.37" y2="12.62"/>
      <path class="cls-5" d="m307.39,33.13l-13.05-13.01c-4.61-4.6-4.62-12.06-.02-16.67,5.1-5.23,14.03-4.38,18.08,1.68,0,0,10.38,15.23,10.38,15.23,6.6,10.27-6.62,21.1-15.39,12.77h0Z"/>
    </g>
    <rect class="cls-1" x="370.83" y="64.04" width="19.85" height="263.63" rx="9.92" ry="9.92"/>
    <rect class="cls-1" x="475.17" y="64.04" width="19.85" height="263.63" rx="9.92" ry="9.92"/>
    <rect class="cls-1" x="423.44" y="21.36" width="18.98" height="104.34" transform="translate(359.4 506.46) rotate(-90)"/>
    <rect class="cls-1" x="418.48" y="263.51" width="28.89" height="124.19" transform="translate(107.32 758.53) rotate(-90)"/>
    <path class="cls-1" d="m419.8,230.14h0c14.27,0,25.85,11.58,25.85,25.85v142.26c0,14.27-11.58,25.85-25.85,25.85h0v-193.97h0Z" transform="translate(105.6 759.85) rotate(-90)"/>
    <rect class="cls-1" x="335.74" y="339.21" width="17.85" height="21"/>
    <rect class="cls-1" x="511.86" y="340.05" width="17.85" height="21"/>
    <path class="cls-1" d="m423.37,4.36h2.46c8.89,0,16.11,7.22,16.11,16.11v37.88c0,8.89-7.22,16.11-16.11,16.11h-2.46V4.36h0Z" transform="translate(393.24 472.05) rotate(-90)"/>
    <rect class="cls-1" x="397.6" y="46.23" width="19.11" height="21.43"/>
    <rect class="cls-1" x="448.58" y="46.23" width="19.11" height="21.43"/>
    <rect class="cls-1" x="424.02" y="79.34" width="18.57" height="111.55" transform="translate(443.51 -318.65) rotate(73.97)"/>
    <rect class="cls-1" x="419.82" y="113.06" width="18.57" height="111.55" transform="translate(472.88 -290.21) rotate(73.97)"/>
    <rect class="cls-1" x="419.82" y="145.82" width="18.57" height="111.55" transform="translate(504.36 -266.5) rotate(73.97)"/>
    <rect class="cls-1" x="419.82" y="179.7" width="18.57" height="111.55" transform="translate(725.24 -154.25) rotate(98.47)"/>
    <rect class="cls-1" x="421.61" y="210.91" width="18.57" height="111.55" transform="translate(758.15 -120.21) rotate(98.47)"/>
    <polygon class="cls-1" points="475.17 230.95 433.49 222.94 476.62 209 475.17 230.95"/>
  </g>
  <g id="Lager_1-2" data-name="Lager 1">
    <path class="cls-2" d="m51.75,369.29c-3.29,0-5.16-3.76-3.18-6.39l76.3-100.95c1.95-2.66,1.62-9.45-.34-12.1l-14.64-19.77c-.26-.36-.47-.75-.6-1.17l-6.92-21.96c-.52-1.66-2.06-2.79-3.8-2.79h-47.32c-6.1,0-11.05-4.95-11.05-11.05v-48.03c0-4.73,3.83-8.56,8.56-8.56h169.3c2.2,0,3.99,1.78,3.99,3.99v82.35c0,2.24-1.85,4.04-4.09,3.98h0c-3.13-.08-5.97-1.23-6.89,1.76l-17.69,60.99c-.14.45-.35.86-.63,1.24l-58.15,76.88c-.75,1-1.93,1.58-3.18,1.58H51.75Z"/>
    <line class="cls-3" x1="73.06" y1="138.82" x2="73.06" y2="101"/>
    <line class="cls-3" x1="140.06" y1="174.53" x2="212.66" y2="174.53"/>
    <line class="cls-2" x1="101.49" y1="204.16" x2="101.49" y2="138.82"/>
    <line class="cls-3" x1="10" y1="369.29" x2="565.36" y2="369.29"/>
    <line class="cls-3" x1="565.36" y1="418.75" x2="10" y2="418.75"/>
    <line class="cls-4" x1="60.56" y1="100.38" x2="83.61" y2="100.38"/>
    <rect class="cls-1" x="47.84" y="144.96" width="47.7" height="7.05"/>
    <rect class="cls-1" x="61.27" y="343.21" width="83.98" height="17.19"/>
    <rect class="cls-1" x="107.66" y="143.01" width="5.63" height="75.23"/>
    <rect class="cls-1" x="127.51" y="292.95" width="21.43" height="21.43" rx="10.71" ry="10.71"/>
    <rect class="cls-1" x="163.83" y="248.23" width="21.43" height="21.43" rx="10.71" ry="10.71"/>
    <rect class="cls-1" x="133.19" y="197.73" width="21.43" height="21.43" rx="10.71" ry="10.71"/>
    <rect class="cls-1" x="175.31" y="197.73" width="21.43" height="21.43" rx="10.71" ry="10.71"/>
    <path class="cls-2" d="m189.87,294.64l40.99-1.7c17.74-1.23,31.49-15.98,31.49-33.76v-33.09"/>
    <g>
      <path class="cls-7" d="m235.22,267.67l-.4-.34c-2.9-2.44-5.45-5.28-7.54-8.44-.94-1.43-1.76-2.77-2.18-3.61-3.99-8.07-9.09-20-10.06-24.5"/>
      <path class="cls-5" d="m230.31,273.49c-5.1-4.02-9.25-8.97-13.27-14.07-3.13-4.69-5.3-9.72-7.67-14.83-1.66-3.87-3.15-7.43-4.12-11.72-1.16-5.39,2.27-10.7,7.66-11.86,5.45-1.2,10.67,2.37,11.9,7.66,0,0,.49,1.58.49,1.58,2.32,7.05,5.53,14.03,7.97,21.08.97,4.12,3.59,7.8,6.86,10.52,3.24,2.69,3.68,7.5.99,10.73-2.71,3.27-7.58,3.68-10.81.92h0Z"/>
    </g>
  </g>
</svg>