<?xml version="1.0" encoding="UTF-8"?>
<svg id="Lager_2" data-name="Lager 2" xmlns="http://www.w3.org/2000/svg" viewBox="0 0 20.37 57.47">
  <defs>
    <style>
      .cls-1 {
        fill: #5aabe0;
        stroke-width: 0px;
      }
    </style>
  </defs>
  <g id="Lager_1-2" data-name="Lager 1">
    <path class="cls-1" d="m14.13,0c-4.13.29-7,3.2-8.84,6.71C3.24,10.62,1.86,15.07.96,19.37c-1.79,8.54-1.29,17.67,3.32,25.28,2.31,3.82,5.57,7.09,9.55,9.15,2.85,1.48,5.39-2.84,2.52-4.32-5.79-3-9.4-8.76-10.78-15.02-1.7-7.69.2-15.77,3.02-22.96.93-2.38,2.64-6.29,5.54-6.49,1.35-.09,2.5-1.08,2.5-2.5C16.63,1.22,15.48-.09,14.13,0h0Z"/>
    <path class="cls-1" d="m15.31,38.35c.11,2.2.08,4.4-.11,6.59-.08.99-.19,1.92-.34,2.85-.09.58-.2,1.16-.31,1.74-.09.44-.41,1.48.28.37.12-.2.21-.09-.14,0-.25.06-.5.11-.75.16-.53.12-1.07.23-1.6.35-1.07.23-2.13.47-3.2.7-2.24.49-4.48.98-6.72,1.47-1.32.29-2.09,1.82-1.75,3.08.37,1.36,1.75,2.04,3.08,1.75,2.45-.54,4.91-1.07,7.36-1.61,1.23-.27,2.45-.54,3.68-.8s2.49-.48,3.41-1.42,1.12-2.39,1.35-3.65c.25-1.38.44-2.78.58-4.17.25-2.46.3-4.93.18-7.39-.07-1.3-1.1-2.56-2.5-2.5-1.3.06-2.57,1.1-2.5,2.5h0Z"/>
  </g>
</svg>