<?xml version="1.0" encoding="UTF-8"?>
<svg id="Lager_2" data-name="Lager 2" xmlns="http://www.w3.org/2000/svg" viewBox="0 0 26.7 25.74">
  <defs>
    <style>
      .cls-1 {
        fill: #63b87a;
        stroke-width: 0px;
      }
    </style>
  </defs>
  <g id="Lager_1-2" data-name="Lager 1">
    <path class="cls-1" d="m2.5,5c7.22.49,14.46.66,21.7.49l-2.16-3.76c-3.93,6.62-7.22,13.61-9.87,20.84h4.82c-1.11-7.73-7.24-13.16-11.03-19.6C4.33.2.01,2.72,1.65,5.5c3.55,6.03,9.49,11.19,10.52,18.41.15,1.07,1.41,1.84,2.41,1.84,1.16,0,2.03-.79,2.41-1.84,2.51-6.83,5.66-13.39,9.37-19.65.95-1.61-.26-3.81-2.16-3.76-7.24.17-14.48,0-21.7-.49C1.15-.09,0,1.22,0,2.5c0,1.43,1.15,2.41,2.5,2.5h0Z"/>
  </g>
</svg>