<?xml version="1.0" encoding="UTF-8"?>
<svg id="Lager_2" data-name="Lager 2" xmlns="http://www.w3.org/2000/svg" viewBox="0 0 55.15 58.39">
  <defs>
    <style>
      .cls-1 {
        fill: #eaaa26;
        stroke-width: 0px;
      }
    </style>
  </defs>
  <g id="Lager_1-2" data-name="Lager 1">
    <path class="cls-1" d="m28.81,13.12c-7.32.29-11.21,7.79-12.3,14.2-.6,3.54-.75,7.36.62,10.75s4.28,6.21,8.02,6.9c7.53,1.38,15.39-3.79,19.95-9.41,2.54-3.13,4.12-6.7,4.36-10.76.22-3.81-.82-7.68-2.62-11.01-3.72-6.89-11-11.11-18.45-12.8C24.25.05,19.79-.43,15.6.51c-3.64.82-6.94,2.98-9.37,5.78C.63,12.73-.41,21.48.13,29.7s2.61,16.14,8.68,21.67c5.38,4.91,12.86,7.35,20.1,6.97,7.99-.41,15.41-3.99,21.47-9.07,1.45-1.21,2.8-2.52,4.09-3.91,2.19-2.36-1.34-5.9-3.54-3.54-8.42,9.08-21.87,15.14-33.83,9.19-5.67-2.82-9.23-7.7-10.81-13.78-.87-3.33-1.2-6.76-1.28-10.19-.08-3.72.19-7.43,1.34-10.99,1.8-5.59,6.26-10.57,12.4-11.01,6.45-.46,13.78,1.49,18.9,5.51,4.48,3.52,7.52,9.25,6.75,15.04-.42,3.16-2.13,5.85-4.32,8.08s-4.86,4.3-7.81,5.5c-2.58,1.05-5.82,1.68-8.27-.01s-2.97-4.85-2.92-7.6c.05-3.01.73-6.15,2.12-8.82,1.21-2.32,3.03-4.53,5.62-4.63,3.21-.13,3.22-5.13,0-5h0Z"/>
  </g>
</svg>