<?xml version="1.0" encoding="UTF-8"?>
<svg id="Lager_2" data-name="Lager 2" xmlns="http://www.w3.org/2000/svg" viewBox="0 0 77.38 29.48">
  <defs>
    <style>
      .cls-1 {
        fill: #eaaa26;
        stroke-width: 0px;
      }
    </style>
  </defs>
  <g id="Lager_1-2" data-name="Lager 1">
    <path class="cls-1" d="m74.91,22.31c2.12-2.24,3.04-5.49,2.1-8.48s-3.51-5.24-6.01-7.01c-4.98-3.54-11.27-5.29-17.24-6.21-12.12-1.86-24.97.25-34.26,8.74-4.53,4.14-7.91,9.65-9.1,15.69-.26,1.32.38,2.7,1.75,3.08,1.23.34,2.81-.41,3.08-1.75,1.73-8.78,8.56-15.91,16.82-19.06,5.18-1.98,10.7-2.62,16.21-2.31,5.21.3,10.63,1.38,15.44,3.45,3.09,1.33,11.78,5.98,7.68,10.31-2.21,2.33,1.32,5.88,3.54,3.54h0Z"/>
    <path class="cls-1" d="m1.22,14.67c5,2.12,8.81,6.79,9.31,12.29.19,2.05,2.65,3.43,4.27,1.77,3.79-3.91,9.47-5.69,14.8-4.48,3.13.71,4.47-4.11,1.33-4.82-7.06-1.6-14.61.56-19.67,5.77l4.27,1.77c-.65-7.15-5.1-13.78-11.79-16.61-1.24-.53-2.68-.37-3.42.9-.61,1.05-.35,2.89.9,3.42h0Z"/>
  </g>
</svg>