<?xml version="1.0" encoding="UTF-8"?>
<svg id="Lager_2" data-name="Lager 2" xmlns="http://www.w3.org/2000/svg" viewBox="0 0 24.77 24.15">
  <defs>
    <style>
      .cls-1 {
        fill: #af66a6;
        stroke-width: 0px;
      }
    </style>
  </defs>
  <g id="Lager_1-2" data-name="Lager 1">
    <path class="cls-1" d="m8.71.06C3.26,1.11.09,6.48,0,11.72c-.04,2.54.5,5.33,1.87,7.51s3.36,3.56,5.71,4.32c4.56,1.47,9.98.16,13.55-2.95,3.82-3.33,4.61-9.12,2.49-13.59C21.26,2.01,15.38-.31,10.13.65c-1.33.24-2.08,1.85-1.75,3.08.38,1.4,1.74,1.99,3.08,1.75.83-.15-.24,0,.26-.05.22-.02.44-.04.66-.04.36,0,.71,0,1.06.03.78.04-.38-.11.39.05.17.04.35.07.52.11.43.11.86.23,1.27.4-.33-.13.18.09.25.12.2.1.39.2.59.31.31.18.61.37.89.58-.27-.21.16.14.21.19.16.15.32.3.48.46.34.35.46.48.61.73.85,1.37,1.19,2.44,1.14,4.03,0,.22-.02.44-.04.66-.05.47.14-.54-.04.26-.08.34-.16.69-.26,1.03-.17.54-.09.36-.36.86-.08.16-.17.31-.26.46,0-.01-.42.62-.22.36-1.04,1.36-2.55,2.17-4.12,2.65-.41.13-.83.23-1.26.31-.17.03-.34.07-.51.09.37-.05-.06,0-.12,0-.44.02-.87.05-1.31.04-.17,0-.35-.01-.52-.02-.01,0-.8-.1-.37-.03-.42-.07-.84-.16-1.25-.28-.14-.04-.92-.33-.59-.19-.39-.17-.73-.39-1.1-.6-.04-.02-.39-.27-.1-.05-.2-.15-.38-.33-.56-.5-1-1-1.58-2.7-1.74-4.18-.22-1.99,0-3.92,1-5.61.9-1.52,2.2-2.45,3.96-2.79,1.33-.26,2.08-1.85,1.75-3.08C11.4.42,10.04-.2,8.71.06h0Z"/>
  </g>
</svg>