<?xml version="1.0" encoding="UTF-8"?>
<svg id="Lager_2" data-name="Lager 2" xmlns="http://www.w3.org/2000/svg" viewBox="0 0 25.39 24.6">
  <defs>
    <style>
      .cls-1 {
        fill: #e62b39;
        stroke-width: 0px;
      }
    </style>
  </defs>
  <g id="Lager_1-2" data-name="Lager 1">
    <path class="cls-1" d="m11.28,3.15c.99,6.05.79,12.3-.52,18.29-.29,1.32.4,2.7,1.75,3.08,1.25.34,2.79-.42,3.08-1.75,1.51-6.92,1.66-13.96.52-20.95-.22-1.33-1.87-2.08-3.08-1.75-1.42.39-1.96,1.74-1.75,3.08h0Z"/>
    <path class="cls-1" d="m3.16,14.57c6.49-1.31,13.12-1.68,19.73-1.22,1.35.1,2.5-1.22,2.5-2.5,0-1.43-1.15-2.4-2.5-2.5-7.05-.5-14.13,0-21.06,1.39-1.32.27-2.09,1.84-1.75,3.08.38,1.38,1.75,2.01,3.08,1.75h0Z"/>
  </g>
</svg>