<?xml version="1.0" encoding="UTF-8"?>
<svg id="Lager_2" data-name="Lager 2" xmlns="http://www.w3.org/2000/svg" viewBox="0 0 32.15 30.2">
  <defs>
    <style>
      .cls-1 {
        fill: #f2e632;
        stroke-width: 0px;
      }
    </style>
  </defs>
  <g id="Lager_1-2" data-name="Lager 1">
    <path class="cls-1" d="m3.33,16.45c8.63-.47,17.27.15,25.73,1.92l-1.49-3.67c-.21.47-1.16.83-1.66,1.12-.71.42-1.42.83-2.13,1.25-1.64.96-3.27,1.92-4.91,2.87-3.2,1.87-6.4,3.75-9.6,5.62l3.76,2.16c.62-7.84,1.96-15.59,3.96-23.2.7-2.64-3.35-4.58-4.57-1.93-1.09,2.39-.64,4.57.46,6.86,1,2.1,2.19,4.12,3.28,6.17,2.28,4.26,4.56,8.52,6.84,12.78l2.16-3.76c-1.55-.16-2.88-2.56-3.75-3.63-1.53-1.89-3.35-3.52-5.34-4.92-4-2.82-8.76-4.4-13.63-4.75-2.53-.18-3.33,3.48-1.26,4.66,4.63,2.64,8.9,5.76,12.8,9.39,2.35,2.19,5.9-1.34,3.54-3.54-4.2-3.9-8.83-7.33-13.82-10.17l-1.26,4.66c4.38.31,8.77,2.04,12.15,4.86s5.57,7.92,10.57,8.44c1.99.21,2.97-2.24,2.16-3.76-1.97-3.68-3.94-7.37-5.91-11.05-.97-1.81-1.93-3.61-2.9-5.42-.44-.82-.92-1.64-1.31-2.49-.2-.43-.68-1.34-.46-1.82l-4.57-1.93c-2.12,8.03-3.49,16.25-4.14,24.53-.15,1.93,2.22,3.06,3.76,2.16,3.49-2.04,6.97-4.08,10.46-6.12,1.71-1,3.41-2,5.12-3,1.57-.92,3.73-1.78,4.52-3.54.61-1.37.23-3.31-1.49-3.67-8.89-1.86-17.99-2.59-27.06-2.1-3.2.18-3.22,5.18,0,5h0Z"/>
  </g>
</svg>