<?xml version="1.0" encoding="UTF-8"?>
<svg id="Lager_2" data-name="Lager 2" xmlns="http://www.w3.org/2000/svg" viewBox="0 0 32.09 35.96">
  <defs>
    <style>
      .cls-1 {
        fill: #f2e632;
        stroke-width: 0px;
      }
    </style>
  </defs>
  <g id="Lager_1-2" data-name="Lager 1">
    <path class="cls-1" d="m2.5,18.89c4.43-.48,8.87-.81,13.32-.96,2.14-.07,4.29-.11,6.43-.11,1.15,0,2.31.01,3.46.04.49.01.99.02,1.48.04.33,0,.66.02.99.03.66.06.66.02,0-.1l-.9-.9.14.21-.34-1.26-.02.34.34-1.26c-.12.17-.96.63-1.23.83-.4.29-.81.58-1.21.87-.94.68-1.88,1.36-2.82,2.04-1.95,1.41-3.9,2.82-5.85,4.23-3.83,2.77-7.66,5.54-11.49,8.31l3.76,2.16c-.18-2.31.52-4.55,1.02-6.78.55-2.43,1.1-4.87,1.64-7.3,1.1-4.87,2.19-9.74,3.29-14.61l-4.91-.66c.27,5.07,3.86,9.01,6.21,13.27s4.3,9.08,5.64,13.93l4.18-2.43c-5.55-6.9-14.8-8.22-21.4-13.67-1.04-.86-2.52-1.02-3.54,0-.89.89-1.05,2.67,0,3.54,3.43,2.83,7.38,4.68,11.35,6.61,3.74,1.82,7.4,3.77,10.05,7.06,1.62,2.02,4.8-.18,4.18-2.43-1.34-4.82-3.19-9.51-5.51-13.94-1.1-2.09-2.33-4.1-3.61-6.08-1.14-1.77-2.44-3.68-2.55-5.85-.14-2.69-4.26-3.55-4.91-.66-1.13,5.03-2.26,10.06-3.4,15.1-.55,2.43-1.1,4.87-1.64,7.3s-1.29,5.05-1.09,7.62c.13,1.7,2.09,3.37,3.76,2.16,4.3-3.11,8.6-6.22,12.9-9.33,2.15-1.55,4.3-3.11,6.45-4.66,1.07-.78,2.16-1.55,3.23-2.33,1.13-.83,2.14-1.65,2.16-3.18.04-3.26-3.58-3.12-5.88-3.18-2.64-.06-5.28-.06-7.92,0-5.28.11-10.55.46-15.79,1.03C1.16,14.04,0,14.94,0,16.39c0,1.24,1.15,2.65,2.5,2.5h0Z"/>
    <path class="cls-1" d="m12.86,25.49c-.05-.14-.09-.28-.13-.43-.02-.1-.04-.19-.06-.29l.05.37c.04-.29-.02-.65-.02-.95.01-.56-.09.3-.01.08.05-.13.06-.29.1-.43s.09-.28.13-.42c.15-.53-.15.24-.03.05.17-.27.29-.57.47-.84l.08-.12c.16-.21.12-.16-.12.15.09-.03.23-.26.29-.33.1-.11.21-.21.32-.31l.11-.1c.2-.17.15-.13-.16.12.19-.03.57-.35.75-.45.44-.25-.54.16-.06.03.14-.04.28-.09.42-.13.26-.06.53,0-.08-.02.18,0,.38-.03.56-.04.77-.02,1.54.09,2.3.19,1.91.25,3.69.25,5.46-.63l-2.52-4.32c-.57.43-1.15.84-1.75,1.22-.28.17-.56.34-.85.5-.17.09-.34.18-.52.27-.07.03-.57.25-.23.11s-.21.07-.23.08c-.15.05-.29.1-.44.14s-.3.08-.44.11c-.09.02-.18.04-.27.05-.19.03-.12.02.22-.03-.04.06-.84.05-.89,0,.34.05.42.06.23.02-.09-.02-.18-.04-.26-.06-.14-.04-.67-.25-.09,0-1.2-.52-2.74-.39-3.42.9-.57,1.08-.38,2.86.9,3.42,1.91.83,3.91.96,5.89.24,1.71-.62,3.23-1.56,4.67-2.65.54-.41.96-.82,1.15-1.49.16-.6.09-1.4-.25-1.93-.77-1.2-2.17-1.52-3.42-.9-.25.12-.22.11.09-.03-.11.04-.23.08-.35.1l-.18.04c-.28.05-.24.05.13,0-.2.16-1.07.01-1.29,0-.83-.06-1.65-.22-2.48-.29-1.78-.17-3.64.14-5.14,1.16-2.88,1.96-4.59,5.73-3.44,9.15.41,1.24,1.74,2.18,3.08,1.75,1.23-.4,2.19-1.75,1.75-3.08h0Z"/>
    <path class="cls-1" d="m11.05,6c1.73,3.48,3.71,6.83,5.91,10.03.74,1.08,2.23,1.67,3.42.9,1.07-.69,1.69-2.27.9-3.42-2.2-3.2-4.18-6.55-5.91-10.03-.58-1.17-2.34-1.59-3.42-.9-1.2.77-1.52,2.17-.9,3.42h0Z"/>
  </g>
</svg>