<?xml version="1.0" encoding="UTF-8"?>
<svg id="Lager_2" data-name="Lager 2" xmlns="http://www.w3.org/2000/svg" viewBox="0 0 35.12 33.15">
  <defs>
    <style>
      .cls-1 {
        fill: #f2e632;
        stroke-width: 0px;
      }
    </style>
  </defs>
  <g id="Lager_1-2" data-name="Lager 1">
    <path class="cls-1" d="m15.83,2.5c.46,4.66-.89,9.07-2.36,13.44-1.54,4.59-3.12,9.14-3.43,14-.08,1.23,1.01,2.32,2.17,2.46,1.33.16,2.26-.6,2.74-1.79,1.14-2.79,4.62-4.25,7.11-5.51,3.94-2,7.89-4,11.83-6,2.28-1.16,1.11-4.64-1.26-4.66-9.69-.09-19.89-.12-28.88-4.24-2.88-1.32-5.3,2.58-2.52,4.32,8.23,5.15,16.65,9.98,25.26,14.48,1.73.9,3.66-.23,3.76-2.16.13-2.41-.88-4.56-1.99-6.64-1.01-1.88-1.96-3.78-2.82-5.73-1.76-3.99-3.1-8.17-4.11-12.4-.54-2.26-4.47-2.51-4.82,0-.86,6.18-.73,12.32.46,18.45.26,1.33,1.85,2.08,3.08,1.75,1.39-.38,2-1.75,1.75-3.08-1-5.18-1.18-10.56-.46-15.79h-4.82c1.01,4.22,2.38,8.34,4.07,12.34.83,1.97,1.73,3.9,2.73,5.8.88,1.68,2.05,3.34,1.95,5.31l3.76-2.16C20.4,20.19,11.98,15.36,3.75,10.2l-2.52,4.32c9.87,4.52,20.73,4.82,31.4,4.92l-1.26-4.66c-4.31,2.19-8.64,4.34-12.93,6.56-3.57,1.85-6.75,4.1-8.31,7.94l4.91.66c.62-9.44,6.74-17.76,5.79-27.45-.13-1.34-1.05-2.5-2.5-2.5-1.25,0-2.63,1.15-2.5,2.5h0Z"/>
  </g>
</svg>